<?xml version="1.0" standalone="yes"?>

<svg version="1.1" viewBox="0.0 0.0 960.0 720.0" fill="none" stroke="none" stroke-linecap="square" stroke-miterlimit="10" xmlns="http://www.w3.org/2000/svg" xmlns:xlink="http://www.w3.org/1999/xlink"><clipPath id="p.0"><path d="m0 0l960.0 0l0 720.0l-960.0 0l0 -720.0z" clip-rule="nonzero"></path></clipPath><g clip-path="url(#p.0)"><path fill="#000000" fill-opacity="0.0" d="m0 0l960.0 0l0 720.0l-960.0 0z" fill-rule="nonzero"></path><path fill="#ffffff" d="m63.106693 137.69026l36.881886 2.929123l-2.3936996 30.425201l-36.88189 -2.9291382z" fill-rule="nonzero"></path><path stroke="#434343" stroke-width="4.0" stroke-linejoin="round" stroke-linecap="butt" d="m63.106693 137.69026l36.881886 2.929123l-2.3936996 30.425201l-36.88189 -2.9291382z" fill-rule="nonzero"></path><path fill="#ffffff" d="m152.87729 19.327955l50.14174 9.700787l-7.968506 41.259842l-50.14174 -9.700783z" fill-rule="nonzero"></path><path stroke="#434343" stroke-width="4.0" stroke-linejoin="round" stroke-linecap="butt" d="m152.87729 19.327955l50.14174 9.700787l-7.968506 41.259842l-50.14174 -9.700783z" fill-rule="nonzero"></path><path fill="#ffffff" d="m129.95522 143.65349l33.543304 2.6456604l-1.9212646 24.18898l-33.543304 -2.6456604z" fill-rule="nonzero"></path><path stroke="#434343" stroke-width="4.0" stroke-linejoin="round" stroke-linecap="butt" d="m129.95522 143.65349l33.543304 2.6456604l-1.9212646 24.18898l-33.543304 -2.6456604z" fill-rule="nonzero"></path><path fill="#ffffff" d="m371.41995 277.23096l16.188965 0l0 20.094513l-16.188965 0z" fill-rule="nonzero"></path><path stroke="#666666" stroke-width="4.0" stroke-linejoin="round" stroke-linecap="butt" d="m371.41995 277.23096l16.188965 0l0 20.094513l-16.188965 0z" fill-rule="nonzero"></path><path fill="#ffffff" d="m463.26773 247.71059l42.70865 -0.03149414l0 43.401566l-42.70865 0.03149414z" fill-rule="nonzero"></path><path stroke="#434343" stroke-width="4.0" stroke-linejoin="round" stroke-linecap="butt" d="m463.26773 247.71059l42.70865 -0.03149414l0 43.401566l-42.70865 0.03149414z" fill-rule="nonzero"></path><path fill="#ffffff" d="m519.71313 228.02179l109.4173 -0.12597656l0 54.897644l-109.4173 0.12597656z" fill-rule="nonzero"></path><path stroke="#434343" stroke-width="4.0" stroke-linejoin="round" stroke-linecap="butt" d="m519.71313 228.02179l109.4173 -0.12597656l0 54.897644l-109.4173 0.12597656z" fill-rule="nonzero"></path><path fill="#ffffff" d="m644.3138 256.4226l67.811035 -0.09448242l0 38.614197l-67.811035 0.09448242z" fill-rule="nonzero"></path><path stroke="#434343" stroke-width="4.0" stroke-linejoin="round" stroke-linecap="butt" d="m644.3138 256.4226l67.811035 -0.09448242l0 38.614197l-67.811035 0.09448242z" fill-rule="nonzero"></path><path fill="#ffffff" d="m727.2939 274.49442l35.748047 -0.03149414l0 31.275574l-35.748047 0.03149414z" fill-rule="nonzero"></path><path stroke="#434343" stroke-width="4.0" stroke-linejoin="round" stroke-linecap="butt" d="m727.2939 274.49442l35.748047 -0.03149414l0 31.275574l-35.748047 0.03149414z" fill-rule="nonzero"></path><path fill="#ffffff" d="m853.88446 326.6738l23.370056 -0.03149414l0 22.425201l-23.370056 0.03149414z" fill-rule="nonzero"></path><path stroke="#434343" stroke-width="4.0" stroke-linejoin="round" stroke-linecap="butt" d="m853.88446 326.6738l23.370056 -0.03149414l0 22.425201l-23.370056 0.03149414z" fill-rule="nonzero"></path><path fill="#ffffff" d="m689.55475 399.36636l89.57483 -0.12597656l0 40.629913l-89.57483 0.12597656z" fill-rule="nonzero"></path><path stroke="#434343" stroke-width="4.0" stroke-linejoin="round" stroke-linecap="butt" d="m689.55475 399.36636l89.57483 -0.12597656l0 40.629913l-89.57483 0.12597656z" fill-rule="nonzero"></path><path fill="#ffffff" d="m616.84247 400.1625l63.968445 -0.06298828l0 40.81891l-63.968445 0.06298828z" fill-rule="nonzero"></path><path stroke="#434343" stroke-width="4.0" stroke-linejoin="round" stroke-linecap="butt" d="m616.84247 400.1625l63.968445 -0.06298828l0 40.81891l-63.968445 0.06298828z" fill-rule="nonzero"></path><path fill="#ffffff" d="m664.063 536.4147l42.236206 -0.03149414l0 24.409424l-42.236206 0.03149414z" fill-rule="nonzero"></path><path stroke="#434343" stroke-width="4.0" stroke-linejoin="round" stroke-linecap="butt" d="m664.063 536.4147l42.236206 -0.03149414l0 24.409424l-42.236206 0.03149414z" fill-rule="nonzero"></path><path fill="#ffffff" d="m727.29395 535.0083l38.614136 -0.03149414l0 24.409485l-38.614136 0.03149414z" fill-rule="nonzero"></path><path stroke="#434343" stroke-width="4.0" stroke-linejoin="round" stroke-linecap="butt" d="m727.29395 535.0083l38.614136 -0.03149414l0 24.409485l-38.614136 0.03149414z" fill-rule="nonzero"></path><path fill="#fff2cc" d="m346.9547 46.445133l0 0c-1.2981873 3.8755493 50.67462 24.779041 116.0845 46.68926c65.40988 21.910217 119.48746 36.530205 120.785675 32.654655l0 0c1.2981567 -3.8755493 55.375732 10.744431 120.785645 32.654648c65.40985 21.910217 117.38269 42.81372 116.08447 46.68927l-18.804565 56.138428c1.2981567 -3.8755493 -50.67462 -24.779037 -116.08453 -46.689255c-65.40985 -21.910217 -119.48743 -36.530197 -120.785645 -32.654648c-1.2981567 3.8755493 -55.375732 -10.744431 -120.785614 -32.654648c-65.40991 -21.910225 -117.38269 -42.81372 -116.0845 -46.68927z" fill-rule="nonzero"></path><path fill="#fff2cc" d="m447.4908 357.6328l0 0c0 1.1090698 37.780823 2.0081177 84.38583 2.0081177c46.60498 3.0517578E-5 84.3858 -0.89904785 84.3858 -2.0081177l0 0c0 -1.1090698 37.780823 -2.0081482 84.385864 -2.0081482c46.60498 0 84.3858 0.89907837 84.3858 2.0081482l0 16.065094c0 -1.1090698 -37.780823 -2.0081482 -84.3858 -2.0081482c-46.60504 0 -84.385864 0.89907837 -84.385864 2.0081482c0 1.1090393 -37.780823 2.0081177 -84.3858 2.0081177c-46.60501 0 -84.38583 -0.89907837 -84.38583 -2.0081177z" fill-rule="nonzero"></path><path fill="#fff2cc" d="m442.66403 479.39944l0 0c0 0.4182129 37.780823 0.75723267 84.38583 0.75723267c46.60498 0 84.3858 -0.33901978 84.3858 -0.75723267l0 0c0 -0.41818237 37.780823 -0.75720215 84.385864 -0.75720215c46.60498 0 84.3858 0.33901978 84.3858 0.75720215l0 6.0577393c0 -0.41818237 -37.780823 -0.75720215 -84.3858 -0.75720215c-46.60504 0 -84.385864 0.33901978 -84.385864 0.75720215c0 0.4182129 -37.780823 0.75723267 -84.3858 0.75723267c-46.60501 -3.0517578E-5 -84.38583 -0.33901978 -84.38583 -0.75723267z" fill-rule="nonzero"></path><path fill="#000000" fill-opacity="0.0" d="m806.042 560.82416c0 32.275574 29.763794 48.41339 59.527588 64.55115c29.763733 16.137817 59.527527 32.275635 59.527527 64.55121" fill-rule="nonzero"></path><path stroke="#999999" stroke-width="12.0" stroke-linejoin="round" stroke-linecap="butt" d="m806.042 560.82416c0 32.275574 29.763794 48.41339 59.527588 64.55115c29.763733 16.137817 59.527527 32.275635 59.527527 64.55121" fill-rule="nonzero"></path><path fill="#000000" fill-opacity="0.0" d="m140.55905 258.16797c78.16536 0 117.24805 38.370087 156.33072 76.74017c39.082672 38.370087 78.165344 76.74014 156.33069 76.74014" fill-rule="nonzero"></path><path stroke="#999999" stroke-width="8.0" stroke-linejoin="round" stroke-linecap="butt" d="m140.55905 258.16797c78.16536 0 117.24805 38.370087 156.33072 76.74017c39.082672 38.370087 78.165344 76.74014 156.33069 76.74014" fill-rule="nonzero"></path><path fill="#000000" fill-opacity="0.0" d="m21.52231 174.23622l109.41733 0l0 40.755905l-109.41733 0z" fill-rule="nonzero"></path><path fill="#000000" d="m45.08481 188.57309l-10.640625 0q-0.65625 0 -0.65625 0.59375q-0.03125 0.609375 0.625 0.609375l4.640625 0l0 3.8125q0 3.65625 -1.5625 6.6875q-1.5 2.953125 -3.875 4.171875q-0.296875 0.140625 -0.390625 0.421875q-0.078125 0.25 0.0625 0.515625q0.125 0.234375 0.359375 0.328125q0.25 0.109375 0.53125 -0.03125q1.96875 -0.984375 3.546875 -3.296875q1.546875 -2.28125 2.015625 -4.734375q0.390625 2.390625 1.984375 4.734375q1.59375 2.296875 3.46875 3.296875q0.359375 0.1875 0.65625 0.09375q0.28125 -0.0625 0.421875 -0.328125q0.125 -0.234375 0.046875 -0.515625q-0.0625 -0.28125 -0.375 -0.4375q-2.453125 -1.359375 -3.953125 -4.265625q-1.546875 -3.0 -1.546875 -6.65625l0 -3.796875l4.640625 0q0.578125 0 0.578125 -0.609375q0 -0.59375 -0.578125 -0.59375zm4.984375 18.171875l0 -18.234375q0 -0.3125 -0.234375 -0.5q-0.1875 -0.140625 -0.46875 -0.140625q-0.296875 0 -0.484375 0.140625q-0.21875 0.1875 -0.21875 0.5l0 18.234375q0 0.328125 0.21875 0.546875q0.1875 0.1875 0.484375 0.1875q0.28125 0 0.46875 -0.1875q0.234375 -0.21875 0.234375 -0.546875zm19.015625 -18.328125l-10.640625 0q-0.65625 0 -0.65625 0.578125q-0.03125 0.609375 0.625 0.609375l4.640625 0l0 0.78125q0 2.453125 -1.609375 4.21875q-1.34375 1.453125 -3.84375 2.484375q-0.3125 0.109375 -0.40625 0.375q-0.0625 0.234375 0.046875 0.46875q0.140625 0.25 0.375 0.34375q0.265625 0.125 0.5625 0.03125q2.109375 -0.828125 3.59375 -2.1875q1.421875 -1.359375 1.96875 -2.921875q0.390625 1.375 2.015625 2.78125q1.5 1.296875 3.421875 2.109375q0.328125 0.140625 0.625 0.046875q0.28125 -0.09375 0.421875 -0.34375q0.125 -0.265625 0.046875 -0.515625q-0.09375 -0.265625 -0.390625 -0.375q-2.34375 -0.9375 -3.703125 -2.34375q-1.734375 -1.78125 -1.734375 -4.21875l0 -0.734375l4.640625 0q0.578125 0 0.578125 -0.609375q0 -0.578125 -0.578125 -0.578125zm4.3125 5.109375l0 -5.0625q0 -0.609375 -0.703125 -0.609375q-0.6875 0 -0.6875 0.625l0 10.78125q0 0.328125 0.21875 0.546875q0.1875 0.15625 0.46875 0.15625q0.28125 0 0.46875 -0.15625q0.234375 -0.1875 0.234375 -0.515625l0 -4.578125l2.59375 0q0.265625 0 0.421875 -0.1875q0.140625 -0.1875 0.140625 -0.421875q-0.015625 -0.234375 -0.1875 -0.421875q-0.15625 -0.15625 -0.46875 -0.15625l-2.5 0zm-7.21875 6.84375q-3.78125 0 -5.796875 1.046875q-1.828125 0.96875 -1.828125 2.5625q0 1.546875 1.828125 2.484375q2.015625 1.0625 5.796875 1.0625q3.75 0 5.765625 -1.0625q1.828125 -0.9375 1.828125 -2.484375q0 -1.59375 -1.828125 -2.5625q-2.015625 -1.046875 -5.765625 -1.046875zm0 1.21875q3.09375 0 4.703125 0.65625q1.5 0.625 1.5 1.734375q0 1.046875 -1.5 1.65625q-1.609375 0.6875 -4.703125 0.6875q-3.125 0 -4.765625 -0.6875q-1.46875 -0.609375 -1.46875 -1.65625q0 -1.109375 1.46875 -1.734375q1.625 -0.65625 4.765625 -0.65625zm26.90625 -13.015625l-10.640625 0q-0.65625 0 -0.65625 0.59375q-0.03125 0.609375 0.625 0.609375l4.640625 0l0 1.265625q0 2.734375 -1.703125 4.921875q-1.40625 1.796875 -3.796875 3.046875q-0.3125 0.15625 -0.375 0.421875q-0.078125 0.234375 0.0625 0.46875q0.140625 0.234375 0.375 0.296875q0.28125 0.09375 0.5625 -0.046875q2.0 -1.0 3.515625 -2.6875q1.53125 -1.640625 2.046875 -3.375q0.421875 1.5625 1.984375 3.203125q1.5 1.578125 3.453125 2.625q0.328125 0.1875 0.65625 0.09375q0.25 -0.0625 0.421875 -0.328125q0.140625 -0.234375 0.0625 -0.515625q-0.0625 -0.28125 -0.375 -0.4375q-2.40625 -1.296875 -3.75 -2.90625q-1.75 -2.109375 -1.75 -4.828125l0 -1.21875l4.640625 0q0.578125 0 0.578125 -0.609375q0 -0.59375 -0.578125 -0.59375zm4.984375 12.84375l0 -12.9375q0 -0.296875 -0.234375 -0.46875q-0.1875 -0.15625 -0.46875 -0.15625q-0.296875 0 -0.484375 0.15625q-0.21875 0.1875 -0.21875 0.5l0 4.984375l-4.0 0q-0.328125 0 -0.5 0.171875q-0.15625 0.15625 -0.15625 0.421875q0.015625 0.234375 0.203125 0.390625q0.21875 0.1875 0.5625 0.1875l3.890625 0l0 6.75q0 0.359375 0.21875 0.5625q0.1875 0.1875 0.484375 0.1875q0.28125 0 0.46875 -0.1875q0.234375 -0.203125 0.234375 -0.5625zm-13.65625 0.28125q0 -0.375 -0.234375 -0.578125q-0.1875 -0.1875 -0.46875 -0.1875q-0.3125 0 -0.5 0.1875q-0.203125 0.203125 -0.203125 0.578125l0 3.125q0 1.03125 0.65625 1.578125q0.609375 0.515625 1.65625 0.515625l12.875 0q0.578125 0 0.578125 -0.609375q0 -0.59375 -0.578125 -0.59375l-12.640625 0q-0.671875 0 -0.90625 -0.21875q-0.234375 -0.234375 -0.234375 -0.859375l0 -2.9375z" fill-rule="nonzero"></path><path fill="#000000" fill-opacity="0.0" d="m130.92126 70.28871l119.055115 0l0 40.755905l-119.055115 0z" fill-rule="nonzero"></path><path fill="#000000" d="m147.93689 85.14121q0 2.515625 -1.40625 5.34375q-1.515625 3.09375 -3.953125 4.96875q-0.3125 0.21875 -0.359375 0.515625q-0.015625 0.265625 0.140625 0.46875q0.171875 0.21875 0.421875 0.265625q0.28125 0.046875 0.515625 -0.140625q1.71875 -1.359375 3.03125 -3.1875q1.078125 -1.5 1.9375 -3.375q1.40625 1.171875 2.703125 2.578125q1.40625 1.546875 2.390625 3.109375q0.1875 0.3125 0.484375 0.375q0.265625 0.046875 0.515625 -0.09375q0.234375 -0.15625 0.28125 -0.4375q0.078125 -0.328125 -0.109375 -0.65625q-1.0625 -1.59375 -2.75 -3.328125q-1.421875 -1.484375 -3.0625 -2.796875q0.234375 -0.703125 0.390625 -1.703125q0.21875 -1.078125 0.21875 -1.90625q0 -0.34375 -0.234375 -0.53125q-0.1875 -0.171875 -0.46875 -0.171875q-0.28125 0 -0.46875 0.171875q-0.21875 0.1875 -0.21875 0.53125zm10.859375 5.84375l0 -6.453125q0 -0.625 -0.703125 -0.625q-0.6875 0 -0.6875 0.625l0 12.984375q0 0.328125 0.21875 0.515625q0.1875 0.1875 0.46875 0.1875q0.28125 0 0.46875 -0.1875q0.234375 -0.1875 0.234375 -0.515625l0 -5.34375l2.546875 0q0.609375 0 0.609375 -0.609375q0 -0.578125 -0.609375 -0.578125l-2.546875 0zm-13.078125 6.75q0 -0.40625 -0.234375 -0.609375q-0.1875 -0.21875 -0.46875 -0.21875q-0.28125 0 -0.46875 0.21875q-0.21875 0.203125 -0.21875 0.609375l0 3.09375q0 0.984375 0.59375 1.546875q0.625 0.59375 1.734375 0.59375l12.140625 0q0.609375 0 0.609375 -0.609375q0 -0.59375 -0.609375 -0.59375l-11.953125 0q-0.65625 0 -0.890625 -0.21875q-0.234375 -0.234375 -0.234375 -0.859375l0 -2.953125zm26.21875 -12.59375q0 2.515625 -1.40625 5.34375q-1.515625 3.09375 -3.953125 4.96875q-0.3125 0.21875 -0.359375 0.515625q-0.015625 0.265625 0.140625 0.46875q0.171875 0.21875 0.421875 0.265625q0.28125 0.046875 0.515625 -0.140625q1.71875 -1.359375 3.03125 -3.1875q1.078125 -1.5 1.9375 -3.375q1.40625 1.171875 2.703125 2.578125q1.40625 1.546875 2.390625 3.109375q0.1875 0.3125 0.484375 0.375q0.265625 0.046875 0.515625 -0.09375q0.234375 -0.15625 0.28125 -0.4375q0.078125 -0.328125 -0.109375 -0.65625q-1.0625 -1.59375 -2.75 -3.328125q-1.421875 -1.484375 -3.0625 -2.796875q0.234375 -0.703125 0.390625 -1.703125q0.21875 -1.078125 0.21875 -1.90625q0 -0.34375 -0.234375 -0.53125q-0.1875 -0.171875 -0.46875 -0.171875q-0.28125 0 -0.46875 0.171875q-0.21875 0.1875 -0.21875 0.53125zm11.53125 12.328125l0 -12.9375q0 -0.296875 -0.234375 -0.46875q-0.1875 -0.15625 -0.46875 -0.15625q-0.296875 0 -0.484375 0.15625q-0.21875 0.1875 -0.21875 0.5l0 12.90625q0 0.359375 0.21875 0.5625q0.1875 0.1875 0.484375 0.1875q0.28125 0 0.46875 -0.1875q0.234375 -0.203125 0.234375 -0.5625zm-13.65625 0.28125q0 -0.375 -0.234375 -0.578125q-0.1875 -0.1875 -0.46875 -0.1875q-0.3125 0 -0.5 0.1875q-0.203125 0.203125 -0.203125 0.578125l0 3.125q0 1.03125 0.65625 1.578125q0.609375 0.515625 1.65625 0.515625l12.875 0q0.578125 0 0.578125 -0.609375q0 -0.59375 -0.578125 -0.59375l-12.640625 0q-0.671875 0 -0.90625 -0.21875q-0.234375 -0.234375 -0.234375 -0.859375l0 -2.9375zm28.78125 -13.28125l-7.171875 0q-0.65625 0 -0.640625 0.578125q0 0.609375 0.65625 0.609375l7.015625 0q0.484375 0 0.765625 0.234375q0.3125 0.234375 0.3125 0.734375l0 1.03125q0 2.640625 -2.1875 4.125q-2.15625 1.421875 -6.234375 1.59375q-0.34375 0 -0.5625 0.203125q-0.15625 0.171875 -0.15625 0.421875q0 0.234375 0.203125 0.40625q0.21875 0.15625 0.5625 0.15625q4.625 -0.203125 7.171875 -2.0625q2.53125 -1.828125 2.53125 -4.828125l0 -1.234375q0 -0.890625 -0.65625 -1.4375q-0.625 -0.53125 -1.609375 -0.53125zm8.203125 5.109375l0 -5.046875q0 -0.625 -0.703125 -0.625q-0.6875 0 -0.6875 0.625l0 9.40625q0 0.328125 0.21875 0.515625q0.1875 0.1875 0.46875 0.1875q0.28125 0 0.46875 -0.1875q0.234375 -0.1875 0.234375 -0.515625l0 -3.171875l2.546875 0q0.609375 0 0.609375 -0.609375q0 -0.578125 -0.609375 -0.578125l-2.546875 0zm-2.328125 7.0l-12.09375 0q-0.65625 0 -0.625 0.609375q0 0.609375 0.625 0.609375l12.09375 0q0.5 0 0.734375 0.21875q0.203125 0.1875 0.203125 0.625l0 4.1875q0 0.328125 0.21875 0.53125q0.1875 0.171875 0.46875 0.171875q0.28125 0 0.46875 -0.171875q0.234375 -0.203125 0.234375 -0.53125l0 -4.1875q0 -0.984375 -0.59375 -1.515625q-0.609375 -0.546875 -1.734375 -0.546875z" fill-rule="nonzero"></path><path fill="#000000" fill-opacity="0.0" d="m238.08923 297.5853l192.50394 0l0 50.960632l-192.50394 0z" fill-rule="nonzero"></path><path fill="#000000" d="m254.87048 312.2503q0 2.109375 -1.171875 4.359375q-1.375 2.625 -4.03125 4.734375q-0.328125 0.234375 -0.34375 0.515625q-0.046875 0.265625 0.140625 0.453125q0.15625 0.1875 0.421875 0.1875q0.296875 0.015625 0.578125 -0.171875q1.59375 -1.21875 2.796875 -2.671875q1.0 -1.234375 1.75 -2.671875q1.484375 0.890625 2.71875 2.015625q1.40625 1.21875 2.75 2.90625q0.203125 0.28125 0.53125 0.3125q0.28125 0.015625 0.5 -0.171875q0.234375 -0.1875 0.234375 -0.46875q0.015625 -0.296875 -0.21875 -0.5625q-1.46875 -1.703125 -2.828125 -2.859375q-1.359375 -1.171875 -3.1875 -2.265625q0.34375 -0.890625 0.5625 -1.859375q0.234375 -0.953125 0.234375 -1.6875q0 -0.375 -0.234375 -0.578125q-0.21875 -0.1875 -0.5 -0.1875q-0.28125 -0.03125 -0.484375 0.15625q-0.21875 0.1875 -0.21875 0.515625zm11.765625 8.9375l0 -9.359375q0 -0.296875 -0.234375 -0.46875q-0.1875 -0.15625 -0.46875 -0.15625q-0.296875 0 -0.484375 0.15625q-0.21875 0.1875 -0.21875 0.5l0 4.046875l-5.96875 0q-0.359375 0 -0.546875 0.171875q-0.15625 0.1875 -0.15625 0.421875q0 0.234375 0.1875 0.421875q0.203125 0.1875 0.5625 0.1875l5.921875 0l0 4.078125q0 0.328125 0.21875 0.53125q0.1875 0.1875 0.484375 0.1875q0.28125 0 0.46875 -0.1875q0.234375 -0.203125 0.234375 -0.53125zm-2.25 3.0625l-12.84375 0q-0.65625 0 -0.625 0.609375q0 0.609375 0.625 0.609375l12.734375 0q0.515625 0 0.75 0.21875q0.203125 0.1875 0.203125 0.625l0 3.8125q0 0.328125 0.21875 0.53125q0.1875 0.171875 0.484375 0.171875q0.28125 0 0.46875 -0.171875q0.234375 -0.203125 0.234375 -0.53125l0 -3.859375q0 -0.9375 -0.578125 -1.46875q-0.59375 -0.546875 -1.671875 -0.546875zm26.296875 -12.421875l-15.109375 0q-0.65625 0 -0.65625 0.609375q-0.03125 0.609375 0.625 0.609375l6.875 0l0 1.15625q0 2.5 -2.296875 4.6875q-2.296875 2.171875 -5.296875 2.578125q-0.375 0.046875 -0.5625 0.296875q-0.171875 0.234375 -0.125 0.515625q0.046875 0.28125 0.28125 0.453125q0.234375 0.1875 0.609375 0.140625q2.765625 -0.5 5.234375 -2.4375q2.15625 -1.734375 2.828125 -3.5q0.640625 1.71875 2.859375 3.453125q2.484375 1.984375 5.28125 2.484375q0.328125 0.046875 0.5625 -0.140625q0.203125 -0.171875 0.25 -0.453125q0.046875 -0.25 -0.09375 -0.484375q-0.15625 -0.234375 -0.484375 -0.28125q-3.125 -0.46875 -5.421875 -2.65625q-2.265625 -2.15625 -2.265625 -4.65625l0 -1.15625l6.90625 0q0.59375 0 0.59375 -0.609375q0 -0.609375 -0.59375 -0.609375zm-8.265625 11.328125l0 4.84375l-8.421875 0q-0.328125 0 -0.515625 0.171875q-0.15625 0.1875 -0.1875 0.421875q-0.015625 0.234375 0.125 0.421875q0.140625 0.1875 0.390625 0.1875l18.40625 0q0.296875 0 0.484375 -0.1875q0.1875 -0.1875 0.1875 -0.421875q0 -0.234375 -0.1875 -0.421875q-0.1875 -0.171875 -0.515625 -0.171875l-8.40625 0l0 -4.75q0 -0.328125 -0.234375 -0.515625q-0.1875 -0.1875 -0.453125 -0.1875q-0.28125 -0.03125 -0.46875 0.140625q-0.203125 0.15625 -0.203125 0.46875zm24.890625 -11.234375l-8.515625 0q-0.625 0 -0.625 0.59375q0 0.609375 0.609375 0.609375l8.671875 0q0.46875 0 0.71875 0.234375q0.265625 0.234375 0.265625 0.71875l0 0.59375q0 1.28125 -0.21875 2.171875q-0.25 1.21875 -0.90625 2.1875q-0.421875 0.578125 0.140625 0.890625q0.5625 0.296875 1.03125 -0.234375q0.765625 -0.984375 1.09375 -2.484375q0.1875 -1.03125 0.21875 -2.46875l0 -0.75q0 -0.953125 -0.640625 -1.5q-0.65625 -0.5625 -1.84375 -0.5625zm6.65625 6.171875l0 -6.265625q0 -0.296875 -0.234375 -0.46875q-0.1875 -0.15625 -0.46875 -0.15625q-0.28125 0 -0.46875 0.15625q-0.21875 0.1875 -0.21875 0.5l0 13.234375q0 0.328125 0.21875 0.546875q0.1875 0.1875 0.46875 0.1875q0.28125 0 0.46875 -0.1875q0.234375 -0.21875 0.234375 -0.546875l0 -5.8125l2.59375 0q0.59375 0 0.5625 -0.609375q0 -0.578125 -0.609375 -0.578125l-2.546875 0zm-11.53125 -0.84375l0 4.703125q-0.984375 0.03125 -2.53125 0.03125q-0.828125 0.015625 -2.015625 0.015625q-0.375 0 -0.59375 0.1875q-0.1875 0.171875 -0.1875 0.421875q0 0.234375 0.1875 0.40625q0.21875 0.203125 0.59375 0.203125q3.890625 0 7.453125 -0.296875q3.703125 -0.328125 5.90625 -0.875q0.28125 -0.09375 0.421875 -0.296875q0.140625 -0.21875 0.09375 -0.421875q-0.078125 -0.21875 -0.28125 -0.328125q-0.234375 -0.09375 -0.59375 0q-1.46875 0.328125 -3.53125 0.578125q-2.109375 0.28125 -3.609375 0.328125l0 -4.65625q0 -0.359375 -0.21875 -0.546875q-0.1875 -0.15625 -0.4375 -0.15625q-0.28125 0 -0.46875 0.15625q-0.1875 0.1875 -0.1875 0.546875zm-1.546875 8.109375q0 -0.328125 -0.234375 -0.515625q-0.1875 -0.1875 -0.46875 -0.1875q-0.28125 0 -0.46875 0.1875q-0.21875 0.1875 -0.21875 0.515625l0 2.8125q0 0.90625 0.5625 1.5q0.5625 0.59375 1.53125 0.59375l12.796875 0q0.609375 0 0.609375 -0.609375q0 -0.59375 -0.609375 -0.59375l-12.375 0q-0.65625 0 -0.890625 -0.21875q-0.234375 -0.234375 -0.234375 -0.859375l0 -2.625zm30.203125 -13.921875q-4.21875 0 -6.28125 0.90625q-1.890625 0.875 -1.890625 2.484375q0 1.59375 1.890625 2.46875q2.0625 0.9375 6.28125 0.9375q4.203125 0 6.265625 -0.9375q1.921875 -0.875 1.921875 -2.46875q0 -1.609375 -1.921875 -2.484375q-2.0625 -0.90625 -6.265625 -0.90625zm0 1.1875q3.59375 0 5.234375 0.546875q1.59375 0.53125 1.59375 1.65625q0 1.109375 -1.59375 1.640625q-1.625 0.546875 -5.234375 0.546875q-3.625 0 -5.25 -0.546875q-1.546875 -0.515625 -1.546875 -1.640625q0 -1.125 1.546875 -1.65625q1.640625 -0.546875 5.25 -0.546875zm9.09375 7.6875l-18.1875 0q-0.671875 0 -0.703125 0.5625q-0.046875 0.59375 0.59375 0.59375l18.34375 0q0.65625 0 0.65625 -0.59375q-0.015625 -0.5625 -0.703125 -0.5625zm-3.234375 3.40625l-11.8125 0q-0.90625 0 -1.453125 0.484375q-0.515625 0.5 -0.515625 1.359375l0 2.9375q0 0.8125 0.515625 1.296875q0.5 0.46875 1.4375 0.46875l12.015625 0q0.84375 0 1.359375 -0.515625q0.515625 -0.5 0.515625 -1.296875l0 -3.078125q0 -0.75 -0.578125 -1.1875q-0.5625 -0.46875 -1.484375 -0.46875zm0.65625 1.984375l0 2.609375q0 0.390625 -0.25 0.578125q-0.234375 0.171875 -0.75 0.171875l-10.96875 0q-0.609375 0 -0.84375 -0.1875q-0.21875 -0.1875 -0.21875 -0.65625l0 -2.4375q0 -0.46875 0.1875 -0.65625q0.234375 -0.21875 0.796875 -0.21875l11.0 0q0.53125 0 0.796875 0.1875q0.25 0.171875 0.25 0.609375zm24.0 -9.390625l0 3.328125q0 0.609375 -0.25 0.84375q-0.265625 0.203125 -0.875 0.203125l-10.78125 0q-0.625 0 -0.890625 -0.234375q-0.234375 -0.234375 -0.234375 -0.796875l0 -3.34375l13.03125 0zm0 -4.109375l0 2.890625l-13.03125 0l0 -2.890625q0 -0.34375 -0.234375 -0.53125q-0.1875 -0.171875 -0.46875 -0.171875q-0.296875 0 -0.484375 0.171875q-0.21875 0.203125 -0.21875 0.5625l0 7.703125q0 0.921875 0.609375 1.4375q0.59375 0.484375 1.546875 0.484375l11.421875 0q1.078125 0 1.65625 -0.515625q0.609375 -0.515625 0.609375 -1.5l0 -7.6875q0 -0.328125 -0.234375 -0.515625q-0.1875 -0.15625 -0.46875 -0.15625q-0.296875 0 -0.484375 0.1875q-0.21875 0.1875 -0.21875 0.53125zm-7.1875 10.953125l0 4.84375l-8.421875 0q-0.328125 0 -0.515625 0.171875q-0.15625 0.1875 -0.1875 0.421875q-0.015625 0.234375 0.125 0.421875q0.140625 0.1875 0.390625 0.1875l18.40625 0q0.296875 0 0.484375 -0.1875q0.1875 -0.1875 0.1875 -0.421875q0 -0.234375 -0.1875 -0.421875q-0.1875 -0.171875 -0.515625 -0.171875l-8.40625 0l0 -4.75q0 -0.328125 -0.234375 -0.515625q-0.1875 -0.1875 -0.453125 -0.1875q-0.28125 -0.03125 -0.46875 0.140625q-0.203125 0.15625 -0.203125 0.46875zm20.453125 -10.875q0 1.703125 -1.1875 3.90625q-1.453125 2.625 -3.921875 4.359375q-0.328125 0.1875 -0.375 0.46875q-0.046875 0.265625 0.125 0.46875q0.140625 0.21875 0.390625 0.265625q0.28125 0.046875 0.5625 -0.140625q1.734375 -1.34375 2.90625 -2.71875q0.921875 -1.109375 1.90625 -2.765625q1.5625 0.859375 2.859375 2.0625q1.21875 1.140625 2.390625 2.78125q0.203125 0.28125 0.515625 0.328125q0.25 0.03125 0.484375 -0.109375q0.21875 -0.171875 0.265625 -0.453125q0.015625 -0.296875 -0.1875 -0.609375q-1.390625 -1.796875 -2.53125 -2.859375q-1.390625 -1.234375 -3.375 -2.3125l0.046875 -0.21875q0.25 -0.71875 0.34375 -1.125q0.171875 -0.65625 0.171875 -1.328125q0 -0.359375 -0.234375 -0.546875q-0.1875 -0.15625 -0.46875 -0.15625q-0.28125 0 -0.46875 0.15625q-0.21875 0.1875 -0.21875 0.546875zm11.09375 4.046875l0 -4.5q0 -0.625 -0.703125 -0.625q-0.6875 0 -0.6875 0.625l0 8.9375q0 0.296875 0.21875 0.484375q0.1875 0.171875 0.46875 0.171875q0.28125 0 0.46875 -0.171875q0.234375 -0.1875 0.234375 -0.484375l0 -3.234375l2.546875 0q0.609375 0 0.609375 -0.609375q0 -0.59375 -0.609375 -0.59375l-2.546875 0zm-2.09375 6.359375l-11.734375 0q-0.703125 0 -0.734375 0.578125q0 0.609375 0.703125 0.609375l11.53125 0q0.515625 0 0.734375 0.171875q0.203125 0.15625 0.203125 0.578125l0 0.640625q0 0.328125 -0.25 0.46875q-0.21875 0.140625 -0.65625 0.140625l-10.125 0q-1.03125 0 -1.546875 0.515625q-0.5 0.484375 -0.5 1.359375l0 1.1875q0 0.734375 0.5 1.1875q0.46875 0.4375 1.265625 0.4375l12.671875 0q0.3125 0 0.5 -0.1875q0.15625 -0.1875 0.15625 -0.421875q0 -0.234375 -0.1875 -0.421875q-0.1875 -0.171875 -0.515625 -0.171875l-12.203125 0q-0.421875 0 -0.609375 -0.140625q-0.1875 -0.140625 -0.1875 -0.484375l0 -0.84375q0 -0.421875 0.15625 -0.609375q0.21875 -0.21875 0.65625 -0.21875l10.40625 0q0.84375 0 1.359375 -0.484375q0.5 -0.453125 0.5 -1.203125l0 -0.90625q0 -0.84375 -0.5625 -1.3125q-0.5625 -0.46875 -1.53125 -0.46875zm15.0 -10.40625q0 1.96875 -1.1875 4.359375q-1.453125 2.90625 -3.921875 4.59375q-0.328125 0.203125 -0.375 0.484375q-0.046875 0.28125 0.125 0.5q0.140625 0.234375 0.390625 0.25q0.28125 0.046875 0.5625 -0.140625q1.78125 -1.375 2.90625 -2.78125q0.984375 -1.21875 1.90625 -3.125q1.640625 1.21875 2.859375 2.4375q1.265625 1.265625 2.390625 2.796875q0.203125 0.28125 0.515625 0.328125q0.25 0.046875 0.484375 -0.125q0.21875 -0.15625 0.265625 -0.421875q0.015625 -0.296875 -0.1875 -0.609375q-1.3125 -1.703125 -2.53125 -2.875q-1.3125 -1.25 -3.375 -2.71875q0.25 -0.796875 0.375 -1.390625q0.1875 -0.8125 0.1875 -1.5625q0 -0.359375 -0.234375 -0.546875q-0.1875 -0.15625 -0.46875 -0.15625q-0.28125 0 -0.46875 0.15625q-0.21875 0.1875 -0.21875 0.546875zm11.09375 4.59375l0 -5.0625q0 -0.609375 -0.703125 -0.609375q-0.6875 0 -0.6875 0.625l0 10.78125q0 0.328125 0.21875 0.546875q0.1875 0.15625 0.46875 0.15625q0.28125 0 0.46875 -0.15625q0.234375 -0.1875 0.234375 -0.515625l0 -4.578125l2.59375 0q0.265625 0 0.421875 -0.1875q0.140625 -0.1875 0.140625 -0.421875q-0.015625 -0.234375 -0.1875 -0.421875q-0.15625 -0.15625 -0.46875 -0.15625l-2.5 0zm-7.21875 6.84375q-3.78125 0 -5.796875 1.046875q-1.828125 0.96875 -1.828125 2.5625q0 1.546875 1.828125 2.484375q2.015625 1.0625 5.796875 1.0625q3.75 0 5.765625 -1.0625q1.828125 -0.9375 1.828125 -2.484375q0 -1.59375 -1.828125 -2.5625q-2.015625 -1.046875 -5.765625 -1.046875zm0 1.21875q3.09375 0 4.703125 0.65625q1.5 0.625 1.5 1.734375q0 1.046875 -1.5 1.65625q-1.609375 0.6875 -4.703125 0.6875q-3.125 0 -4.765625 -0.6875q-1.46875 -0.609375 -1.46875 -1.65625q0 -1.109375 1.46875 -1.734375q1.625 -0.65625 4.765625 -0.65625z" fill-rule="nonzero"></path><path fill="#000000" fill-opacity="0.0" d="m387.60892 325.57742l826.1417 0l0 96.37796l-826.1417 0z" fill-rule="nonzero"></path><path fill="#000000" fill-opacity="0.0" d="m607.1522 441.7638l312.66144 0l0 43.811005l-312.66144 0z" fill-rule="nonzero"></path><path fill="#000000" d="m644.5116 458.33502l-15.8125 0q-0.65625 0 -0.65625 0.578125q0 0.59375 0.65625 0.59375l15.890625 0q0.578125 0 0.5625 -0.59375q-0.03125 -0.578125 -0.640625 -0.578125zm-3.65625 -2.671875l-8.5 0q-0.65625 0 -0.65625 0.578125q0 0.609375 0.65625 0.609375l8.59375 0q0.5625 0 0.546875 -0.609375q-0.03125 -0.578125 -0.640625 -0.578125zm-4.265625 5.109375q-3.53125 0 -5.625 0.890625q-1.875 0.84375 -1.875 2.03125q0 1.171875 1.875 1.96875q2.09375 0.890625 5.625 0.890625q3.515625 0 5.625 -0.890625q1.90625 -0.8125 1.90625 -1.96875q0 -1.1875 -1.90625 -2.03125q-2.109375 -0.890625 -5.625 -0.890625zm0 1.21875q2.90625 0 4.578125 0.515625q1.515625 0.46875 1.515625 1.1875q0 0.703125 -1.515625 1.15625q-1.640625 0.515625 -4.578125 0.515625q-2.921875 0 -4.5625 -0.515625q-1.5 -0.453125 -1.5 -1.15625q0 -0.71875 1.5 -1.1875q1.65625 -0.515625 4.5625 -0.515625zm9.171875 6.09375l-18.265625 0q-0.671875 0 -0.703125 0.578125q-0.046875 0.609375 0.59375 0.609375l8.53125 0l0 5.03125q0 0.328125 0.203125 0.53125q0.1875 0.171875 0.46875 0.171875q0.265625 0 0.453125 -0.1875q0.234375 -0.21875 0.234375 -0.546875l0 -5.0l8.53125 0q0.578125 0 0.578125 -0.609375q-0.015625 -0.578125 -0.625 -0.578125zm12.234375 -12.234375q-3.0 0 -4.671875 1.046875q-1.46875 0.9375 -1.46875 2.375q0 1.40625 1.46875 2.34375q1.671875 1.046875 4.671875 1.046875q2.96875 0 4.640625 -1.046875q1.5 -0.9375 1.5 -2.34375q0 -1.4375 -1.5 -2.375q-1.671875 -1.046875 -4.640625 -1.046875zm0 1.1875q2.359375 0 3.625 0.6875q1.125 0.609375 1.125 1.546875q0 0.90625 -1.125 1.515625q-1.265625 0.6875 -3.625 0.6875q-2.390625 0 -3.65625 -0.6875q-1.109375 -0.609375 -1.109375 -1.515625q0 -0.9375 1.109375 -1.546875q1.265625 -0.6875 3.65625 -0.6875zm-0.796875 8.34375l0 1.03125q0 0.640625 -0.140625 1.15625q-0.140625 0.515625 -0.359375 0.890625q-0.390625 0.515625 0.078125 0.859375q0.46875 0.375 0.890625 -0.09375q0.390625 -0.484375 0.65625 -1.28125q0.28125 -0.828125 0.28125 -1.6875l0 -0.9375l5.765625 -0.171875q0.28125 -0.015625 0.46875 -0.234375q0.140625 -0.15625 0.140625 -0.390625q-0.03125 -0.265625 -0.21875 -0.40625q-0.203125 -0.15625 -0.53125 -0.109375q-2.1875 0.109375 -6.125 0.203125q-3.671875 0.09375 -6.90625 0.09375q-0.609375 0 -0.640625 0.5625q-0.015625 0.59375 0.5625 0.59375l6.078125 -0.078125zm10.9375 3.921875l0 -13.296875q0 -0.296875 -0.234375 -0.46875q-0.1875 -0.15625 -0.46875 -0.15625q-0.296875 0 -0.484375 0.15625q-0.21875 0.1875 -0.21875 0.5l0 10.28125l-4.640625 0q-0.328125 0 -0.515625 0.171875q-0.15625 0.15625 -0.140625 0.421875q0 0.234375 0.21875 0.390625q0.203125 0.1875 0.578125 0.1875l4.5 0l0 1.8125q0 0.328125 0.21875 0.53125q0.1875 0.171875 0.484375 0.171875q0.28125 0 0.46875 -0.171875q0.234375 -0.203125 0.234375 -0.53125zm-13.6875 0.09375q0 -0.328125 -0.234375 -0.515625q-0.1875 -0.1875 -0.46875 -0.1875q-0.296875 0 -0.484375 0.1875q-0.21875 0.1875 -0.21875 0.515625l0 2.953125q0 0.90625 0.640625 1.5q0.625 0.59375 1.59375 0.59375l13.03125 0q0.609375 0 0.609375 -0.609375q0 -0.59375 -0.609375 -0.59375l-12.703125 0q-0.6875 0 -0.921875 -0.21875q-0.234375 -0.234375 -0.234375 -0.859375l0 -2.765625z" fill-rule="nonzero"></path><path fill="#000000" d="m701.4647 455.86627q-3.9375 0 -6.140625 1.59375q-2.03125 1.5 -2.03125 3.921875q0 2.359375 2.03125 3.84375q2.203125 1.5625 6.140625 1.5625q3.921875 0 6.125 -1.5625q2.0625 -1.484375 2.0625 -3.84375q0 -2.421875 -2.0625 -3.921875q-2.203125 -1.59375 -6.125 -1.59375zm0 1.21875q3.28125 0 5.109375 1.21875q1.71875 1.15625 1.71875 3.078125q0 1.875 -1.71875 3.015625q-1.828125 1.203125 -5.109375 1.203125q-3.296875 0 -5.125 -1.203125q-1.6875 -1.125 -1.6875 -3.015625q0 -1.921875 1.6875 -3.078125q1.828125 -1.21875 5.125 -1.21875zm-4.84375 10.359375l0 4.734375l-4.25 0q-0.328125 0 -0.515625 0.171875q-0.15625 0.1875 -0.1875 0.421875q-0.015625 0.234375 0.125 0.421875q0.140625 0.1875 0.390625 0.1875l18.40625 0q0.296875 0 0.484375 -0.1875q0.1875 -0.1875 0.1875 -0.421875q0 -0.234375 -0.1875 -0.421875q-0.1875 -0.171875 -0.515625 -0.171875l-4.21875 0l0 -4.734375q0 -0.65625 -0.703125 -0.65625q-0.703125 -0.015625 -0.703125 0.640625l0 4.75l-6.90625 0l0 -4.703125q0 -0.65625 -0.703125 -0.65625q-0.703125 -0.03125 -0.703125 0.625zm24.90625 -10.84375q0 3.796875 -1.234375 7.75q-1.453125 4.671875 -4.125 7.640625q-0.265625 0.265625 -0.265625 0.5625q0 0.265625 0.21875 0.453125q0.1875 0.15625 0.4375 0.140625q0.28125 0 0.5 -0.234375q1.796875 -2.203125 2.96875 -4.625q1.109375 -2.21875 1.921875 -5.15625q1.21875 1.578125 2.71875 4.59375q1.21875 2.4375 2.140625 4.734375q0.140625 0.328125 0.390625 0.46875q0.265625 0.140625 0.5 0.046875q0.25 -0.109375 0.34375 -0.375q0.125 -0.28125 -0.015625 -0.65625q-0.84375 -2.296875 -2.328125 -4.984375q-1.59375 -2.90625 -3.375 -5.234375q0.234375 -1.125 0.40625 -2.53125q0.1875 -1.453125 0.1875 -2.59375q0 -0.328125 -0.234375 -0.515625q-0.1875 -0.1875 -0.46875 -0.1875q-0.28125 0 -0.46875 0.1875q-0.21875 0.1875 -0.21875 0.515625zm10.8125 8.015625l0 -8.578125q0 -0.3125 -0.234375 -0.5q-0.1875 -0.140625 -0.46875 -0.140625q-0.28125 0 -0.46875 0.140625q-0.21875 0.1875 -0.21875 0.5l0 18.28125q0 0.3125 0.21875 0.5q0.1875 0.1875 0.46875 0.1875q0.28125 0 0.46875 -0.1875q0.234375 -0.1875 0.234375 -0.5l0 -8.5625l2.59375 0q0.5625 0 0.5625 -0.578125q0 -0.5625 -0.5625 -0.5625l-2.59375 0zm15.375 -8.765625l-4.953125 0q-0.65625 0 -0.65625 0.578125q0 0.609375 0.65625 0.609375l5.046875 0q0.25 0 0.421875 -0.1875q0.140625 -0.1875 0.140625 -0.421875q-0.03125 -0.234375 -0.1875 -0.421875q-0.171875 -0.15625 -0.46875 -0.15625zm1.453125 3.28125l-7.78125 0q-0.65625 0 -0.65625 0.578125q-0.03125 0.609375 0.625 0.609375l3.1875 0l0 2.765625q0 3.046875 -1.421875 5.5625q-1.03125 1.78125 -2.859375 3.421875q-0.28125 0.234375 -0.3125 0.5625q-0.015625 0.28125 0.171875 0.484375q0.1875 0.21875 0.46875 0.234375q0.28125 0.046875 0.53125 -0.15625q1.484375 -1.3125 2.5625 -2.859375q1.171875 -1.6875 1.5625 -3.28125q0.359375 1.546875 1.5 3.28125q0.984375 1.5 2.390625 2.859375q0.21875 0.203125 0.515625 0.15625q0.28125 -0.015625 0.515625 -0.234375q0.21875 -0.203125 0.234375 -0.484375q0 -0.3125 -0.25 -0.515625q-1.859375 -1.671875 -2.84375 -3.46875q-1.375 -2.53125 -1.375 -5.609375l0 -2.71875l3.234375 0q0.53125 0 0.5625 -0.609375q0 -0.578125 -0.5625 -0.578125zm7.125 -3.140625l0 8.71875l-3.328125 0l0 -8.71875q0 -0.609375 -0.703125 -0.609375q-0.6875 0 -0.6875 0.609375l0 18.3125q0 0.328125 0.21875 0.53125q0.1875 0.171875 0.46875 0.171875q0.28125 0 0.46875 -0.171875q0.234375 -0.203125 0.234375 -0.53125l0 -8.453125l3.328125 0l0 8.5q0 0.296875 0.203125 0.484375q0.1875 0.171875 0.46875 0.171875q0.265625 0 0.453125 -0.1875q0.234375 -0.1875 0.234375 -0.5l0 -18.328125q0 -0.609375 -0.6875 -0.609375q-0.671875 0 -0.671875 0.609375z" fill-rule="nonzero"></path><path fill="#000000" d="m779.98035 455.5694l-8.40625 21.796875l-2.03125 0l8.375 -21.796875l2.0625 0z" fill-rule="nonzero"></path><path fill="#000000" d="m808.8319 455.96002l-15.109375 0q-0.65625 0 -0.65625 0.59375q-0.03125 0.609375 0.625 0.609375l6.875 0q-0.140625 1.59375 -2.375 2.828125q-2.171875 1.21875 -5.21875 1.53125q-0.40625 0.015625 -0.59375 0.234375q-0.15625 0.203125 -0.09375 0.46875q0.046875 0.28125 0.265625 0.4375q0.25 0.1875 0.625 0.140625q2.90625 -0.328125 5.1875 -1.453125q2.171875 -1.078125 2.875 -2.40625q0.734375 1.328125 2.90625 2.40625q2.296875 1.125 5.234375 1.453125q0.328125 0.046875 0.5625 -0.140625q0.203125 -0.15625 0.25 -0.4375q0.046875 -0.265625 -0.09375 -0.46875q-0.15625 -0.21875 -0.484375 -0.234375q-3.1875 -0.328125 -5.375 -1.546875q-2.203125 -1.21875 -2.3125 -2.8125l6.90625 0q0.59375 0 0.59375 -0.609375q0 -0.59375 -0.59375 -0.59375zm1.5 9.375l-8.4375 0l0 -2.578125q0 -0.609375 -0.671875 -0.578125q-0.6875 0 -0.6875 0.625l0 2.53125l-8.390625 0q-0.328125 0 -0.515625 0.171875q-0.15625 0.1875 -0.1875 0.421875q-0.015625 0.234375 0.125 0.421875q0.140625 0.1875 0.390625 0.1875l18.40625 0q0.296875 0 0.484375 -0.1875q0.1875 -0.1875 0.1875 -0.421875q0 -0.234375 -0.1875 -0.421875q-0.1875 -0.171875 -0.515625 -0.171875zm-9.09375 2.84375q-4.171875 0 -6.28125 0.984375q-1.890625 0.890625 -1.890625 2.453125q0 1.546875 1.890625 2.453125q2.109375 0.984375 6.28125 0.984375q4.15625 0 6.265625 -0.984375q1.921875 -0.90625 1.921875 -2.453125q0 -1.59375 -1.921875 -2.453125q-2.09375 -0.984375 -6.265625 -0.984375zm0 1.171875q3.546875 0 5.25 0.609375q1.578125 0.5625 1.578125 1.65625q0 1.0625 -1.578125 1.59375q-1.703125 0.640625 -5.25 0.640625q-3.5625 0 -5.265625 -0.640625q-1.546875 -0.53125 -1.546875 -1.59375q0 -1.09375 1.546875 -1.65625q1.703125 -0.609375 5.265625 -0.609375zm29.625 -13.34375l-11.390625 0q-1.046875 0 -1.640625 0.5625q-0.515625 0.515625 -0.515625 1.359375l0 4.265625q0 0.890625 0.5625 1.40625q0.5625 0.5 1.59375 0.5l11.53125 0q1.03125 0 1.59375 -0.515625q0.5625 -0.46875 0.5625 -1.34375l0 -4.375q0 -0.890625 -0.5625 -1.359375q-0.578125 -0.5 -1.734375 -0.5zm0.890625 2.0l0 4.171875q0 0.375 -0.25 0.5625q-0.234375 0.1875 -0.75 0.1875l-10.96875 0q-0.609375 0 -0.84375 -0.21875q-0.21875 -0.203125 -0.21875 -0.671875l0 -3.984375q0 -0.453125 0.1875 -0.640625q0.234375 -0.203125 0.796875 -0.203125l11.0 0q0.53125 0 0.796875 0.1875q0.25 0.15625 0.25 0.609375zm2.625 8.8125l-18.234375 0q-0.65625 0 -0.671875 0.578125q-0.03125 0.609375 0.578125 0.609375l8.515625 0l0 6.296875q0 0.328125 0.203125 0.53125q0.1875 0.171875 0.46875 0.171875q0.265625 0 0.453125 -0.1875q0.234375 -0.21875 0.234375 -0.546875l0 -6.265625l8.5 0q0.609375 0 0.609375 -0.609375q-0.015625 -0.578125 -0.65625 -0.578125zm14.1875 -10.4375q0 3.640625 -2.515625 6.21875q-2.15625 2.21875 -5.0625 2.8125q-0.375 0.0625 -0.53125 0.296875q-0.171875 0.1875 -0.140625 0.453125q0.046875 0.234375 0.25 0.375q0.234375 0.140625 0.59375 0.09375q2.828125 -0.5625 5.15625 -2.703125q2.21875 -1.984375 2.921875 -4.359375q0.75 2.34375 2.9375 4.359375q2.296875 2.109375 5.015625 2.671875q0.390625 0.078125 0.671875 -0.0625q0.234375 -0.140625 0.28125 -0.40625q0.078125 -0.25 -0.09375 -0.46875q-0.1875 -0.234375 -0.53125 -0.296875q-3.078125 -0.640625 -5.1875 -2.8125q-2.40625 -2.515625 -2.40625 -6.125q0 -0.375 -0.234375 -0.609375q-0.1875 -0.1875 -0.453125 -0.1875q-0.28125 0 -0.46875 0.1875q-0.203125 0.21875 -0.203125 0.5625zm0 10.953125l0 4.84375l-8.421875 0q-0.328125 0 -0.515625 0.171875q-0.15625 0.1875 -0.1875 0.421875q-0.015625 0.234375 0.125 0.421875q0.140625 0.1875 0.390625 0.1875l18.40625 0q0.296875 0 0.484375 -0.1875q0.1875 -0.1875 0.1875 -0.421875q0 -0.234375 -0.1875 -0.421875q-0.1875 -0.171875 -0.515625 -0.171875l-8.40625 0l0 -4.75q0 -0.328125 -0.234375 -0.515625q-0.1875 -0.1875 -0.453125 -0.1875q-0.28125 -0.03125 -0.46875 0.140625q-0.203125 0.15625 -0.203125 0.46875z" fill-rule="nonzero"></path><path fill="#000000" fill-opacity="0.0" d="m589.6693 558.1627l206.64563 0l0 43.811035l-206.64563 0z" fill-rule="nonzero"></path><path fill="#000000" d="m610.8568 575.359l-9.09375 0q-0.65625 0 -0.65625 0.609375q0 0.609375 0.65625 0.609375l9.1875 0q0.3125 0 0.46875 -0.203125q0.171875 -0.171875 0.171875 -0.40625q-0.03125 -0.25 -0.1875 -0.421875q-0.21875 -0.1875 -0.546875 -0.1875zm-2.3125 -3.140625l-4.34375 0q-0.671875 0 -0.671875 0.59375q0 0.609375 0.671875 0.609375l4.359375 0q0.65625 0 0.65625 -0.609375q0 -0.59375 -0.671875 -0.59375zm-2.15625 6.046875q-2.109375 0 -3.359375 1.78125q-1.09375 1.625 -1.09375 3.921875q0 2.3125 1.09375 3.9375q1.25 1.796875 3.359375 1.796875q2.078125 0 3.28125 -1.796875q1.09375 -1.59375 1.09375 -3.9375q0 -2.328125 -1.09375 -3.921875q-1.21875 -1.78125 -3.28125 -1.78125zm0 1.203125q1.46875 0 2.296875 1.375q0.75 1.21875 0.75 3.125q0 1.84375 -0.75 3.09375q-0.828125 1.421875 -2.296875 1.421875q-1.53125 0 -2.34375 -1.421875q-0.734375 -1.21875 -0.734375 -3.09375q0 -1.90625 0.734375 -3.125q0.8125 -1.375 2.34375 -1.375zm11.109375 -7.078125l0 8.71875l-3.328125 0l0 -8.71875q0 -0.609375 -0.703125 -0.609375q-0.6875 0 -0.6875 0.609375l0 18.3125q0 0.328125 0.21875 0.53125q0.1875 0.171875 0.46875 0.171875q0.28125 0 0.46875 -0.171875q0.234375 -0.203125 0.234375 -0.53125l0 -8.453125l3.328125 0l0 8.5q0 0.296875 0.203125 0.484375q0.1875 0.171875 0.46875 0.171875q0.265625 0 0.453125 -0.1875q0.234375 -0.1875 0.234375 -0.5l0 -18.328125q0 -0.609375 -0.6875 -0.609375q-0.671875 0 -0.671875 0.609375zm17.171875 -0.28125q-4.046875 0 -6.203125 1.265625q-1.96875 1.125 -1.96875 3.015625q0 1.875 1.96875 3.03125q2.171875 1.28125 6.203125 1.28125q4.015625 0 6.1875 -1.28125q2.0 -1.15625 2.0 -3.03125q0 -1.890625 -2.0 -3.015625q-2.15625 -1.265625 -6.1875 -1.265625zm0 1.1875q3.359375 0 5.15625 0.890625q1.671875 0.828125 1.671875 2.203125q0 1.359375 -1.671875 2.1875q-1.78125 0.90625 -5.15625 0.90625q-3.390625 0 -5.171875 -0.90625q-1.640625 -0.828125 -1.640625 -2.1875q0 -1.375 1.640625 -2.203125q1.796875 -0.890625 5.171875 -0.890625zm9.140625 9.921875l-18.234375 0q-0.65625 0 -0.671875 0.578125q-0.03125 0.609375 0.578125 0.609375l8.515625 0l0 6.296875q0 0.328125 0.203125 0.53125q0.1875 0.171875 0.46875 0.171875q0.265625 0 0.453125 -0.1875q0.234375 -0.21875 0.234375 -0.546875l0 -6.265625l8.5 0q0.609375 0 0.609375 -0.609375q-0.015625 -0.578125 -0.65625 -0.578125zm14.1875 -10.4375q0 3.640625 -2.515625 6.21875q-2.15625 2.21875 -5.0625 2.8125q-0.375 0.0625 -0.53125 0.296875q-0.171875 0.1875 -0.140625 0.453125q0.046875 0.234375 0.25 0.375q0.234375 0.140625 0.59375 0.09375q2.828125 -0.5625 5.15625 -2.703125q2.21875 -1.984375 2.921875 -4.359375q0.75 2.34375 2.9375 4.359375q2.296875 2.109375 5.015625 2.671875q0.390625 0.078125 0.671875 -0.0625q0.234375 -0.140625 0.28125 -0.40625q0.078125 -0.25 -0.09375 -0.46875q-0.1875 -0.234375 -0.53125 -0.296875q-3.078125 -0.640625 -5.1875 -2.8125q-2.40625 -2.515625 -2.40625 -6.125q0 -0.375 -0.234375 -0.609375q-0.1875 -0.1875 -0.453125 -0.1875q-0.28125 0 -0.46875 0.1875q-0.203125 0.21875 -0.203125 0.5625zm0 10.953125l0 4.84375l-8.421875 0q-0.328125 0 -0.515625 0.171875q-0.15625 0.1875 -0.1875 0.421875q-0.015625 0.234375 0.125 0.421875q0.140625 0.1875 0.390625 0.1875l18.40625 0q0.296875 0 0.484375 -0.1875q0.1875 -0.1875 0.1875 -0.421875q0 -0.234375 -0.1875 -0.421875q-0.1875 -0.171875 -0.515625 -0.171875l-8.40625 0l0 -4.75q0 -0.328125 -0.234375 -0.515625q-0.1875 -0.1875 -0.453125 -0.1875q-0.28125 -0.03125 -0.46875 0.140625q-0.203125 0.15625 -0.203125 0.46875z" fill-rule="nonzero"></path><path fill="#000000" d="m679.8412 595.0309l-2.671875 0q-2.078125 -2.375 -3.234375 -5.1875q-1.140625 -2.8125 -1.140625 -6.34375q0 -3.53125 1.140625 -6.34375q1.15625 -2.8125 3.234375 -5.1875l2.671875 0l0 0.109375q-0.9375 0.859375 -1.8125 1.984375q-0.859375 1.109375 -1.59375 2.609375q-0.703125 1.4375 -1.140625 3.171875q-0.4375 1.734375 -0.4375 3.65625q0 2.0 0.421875 3.671875q0.4375 1.65625 1.15625 3.15625q0.703125 1.453125 1.609375 2.609375q0.90625 1.171875 1.796875 1.984375l0 0.109375z" fill-rule="nonzero"></path><path fill="#000000" d="m689.5834 573.01526q0 2.515625 -1.40625 5.34375q-1.515625 3.09375 -3.953125 4.96875q-0.3125 0.21875 -0.359375 0.515625q-0.015625 0.265625 0.140625 0.46875q0.171875 0.21875 0.421875 0.265625q0.28125 0.046875 0.515625 -0.140625q1.71875 -1.359375 3.03125 -3.1875q1.078125 -1.5 1.9375 -3.375q1.40625 1.171875 2.703125 2.578125q1.40625 1.546875 2.390625 3.109375q0.1875 0.3125 0.484375 0.375q0.265625 0.046875 0.515625 -0.09375q0.234375 -0.15625 0.28125 -0.4375q0.078125 -0.328125 -0.109375 -0.65625q-1.0625 -1.59375 -2.75 -3.328125q-1.421875 -1.484375 -3.0625 -2.796875q0.234375 -0.703125 0.390625 -1.703125q0.21875 -1.078125 0.21875 -1.90625q0 -0.34375 -0.234375 -0.53125q-0.1875 -0.171875 -0.46875 -0.171875q-0.28125 0 -0.46875 0.171875q-0.21875 0.1875 -0.21875 0.53125zm11.53125 12.328125l0 -12.9375q0 -0.296875 -0.234375 -0.46875q-0.1875 -0.15625 -0.46875 -0.15625q-0.296875 0 -0.484375 0.15625q-0.21875 0.1875 -0.21875 0.5l0 12.90625q0 0.359375 0.21875 0.5625q0.1875 0.1875 0.484375 0.1875q0.28125 0 0.46875 -0.1875q0.234375 -0.203125 0.234375 -0.5625zm-13.65625 0.28125q0 -0.375 -0.234375 -0.578125q-0.1875 -0.1875 -0.46875 -0.1875q-0.3125 0 -0.5 0.1875q-0.203125 0.203125 -0.203125 0.578125l0 3.125q0 1.03125 0.65625 1.578125q0.609375 0.515625 1.65625 0.515625l12.875 0q0.578125 0 0.578125 -0.609375q0 -0.59375 -0.578125 -0.59375l-12.640625 0q-0.671875 0 -0.90625 -0.21875q-0.234375 -0.234375 -0.234375 -0.859375l0 -2.9375z" fill-rule="nonzero"></path><path fill="#000000" d="m714.349 583.49963q0 3.53125 -1.15625 6.34375q-1.140625 2.8125 -3.21875 5.1875l-2.6875 0l0 -0.109375q0.90625 -0.8125 1.8125 -1.984375q0.90625 -1.15625 1.609375 -2.609375q0.71875 -1.5 1.140625 -3.15625q0.4375 -1.671875 0.4375 -3.671875q0 -1.921875 -0.4375 -3.65625q-0.4375 -1.734375 -1.140625 -3.171875q-0.75 -1.5 -1.609375 -2.609375q-0.859375 -1.125 -1.8125 -1.984375l0 -0.109375l2.6875 0q2.078125 2.375 3.21875 5.1875q1.15625 2.8125 1.15625 6.34375zm19.726562 11.53125l-2.671875 0q-2.078125 -2.375 -3.234375 -5.1875q-1.140625 -2.8125 -1.140625 -6.34375q0 -3.53125 1.140625 -6.34375q1.15625 -2.8125 3.234375 -5.1875l2.671875 0l0 0.109375q-0.9375 0.859375 -1.8125 1.984375q-0.859375 1.109375 -1.59375 2.609375q-0.703125 1.4375 -1.140625 3.171875q-0.4375 1.734375 -0.4375 3.65625q0 2.0 0.421875 3.671875q0.4375 1.65625 1.15625 3.15625q0.703125 1.453125 1.609375 2.609375q0.90625 1.171875 1.796875 1.984375l0 0.109375z" fill-rule="nonzero"></path><path fill="#000000" d="m752.9896 582.18713l1.453125 0q0.5625 -0.796875 0.90625 -2.046875q0.375 -1.421875 0.375 -3.25l0 -2.328125q0 -1.03125 -0.703125 -1.59375q-0.671875 -0.5625 -1.875 -0.5625l-12.90625 0q-0.640625 0 -0.640625 0.59375q0 0.609375 0.640625 0.609375l12.9375 0q0.515625 0 0.8125 0.28125q0.328125 0.28125 0.328125 0.765625l0 2.375q0 1.734375 -0.328125 2.953125q-0.328125 1.21875 -1.0 2.203125zm3.90625 -0.234375l-18.203125 0q-0.6875 0 -0.65625 0.578125q0.015625 0.609375 0.625 0.609375l8.484375 0l0 7.5625q0 0.328125 0.21875 0.53125q0.1875 0.171875 0.46875 0.171875q0.25 0 0.4375 -0.171875q0.234375 -0.203125 0.234375 -0.53125l0 -7.5625l8.421875 0q0.296875 0 0.484375 -0.1875q0.1875 -0.1875 0.1875 -0.421875q0 -0.234375 -0.1875 -0.421875q-0.1875 -0.15625 -0.515625 -0.15625z" fill-rule="nonzero"></path><path fill="#000000" d="m768.5834 583.49963q0 3.53125 -1.15625 6.34375q-1.140625 2.8125 -3.21875 5.1875l-2.6875 0l0 -0.109375q0.90625 -0.8125 1.8125 -1.984375q0.90625 -1.15625 1.609375 -2.609375q0.71875 -1.5 1.140625 -3.15625q0.4375 -1.671875 0.4375 -3.671875q0 -1.921875 -0.4375 -3.65625q-0.4375 -1.734375 -1.140625 -3.171875q-0.75 -1.5 -1.609375 -2.609375q-0.859375 -1.125 -1.8125 -1.984375l0 -0.109375l2.6875 0q2.078125 2.375 3.21875 5.1875q1.15625 2.8125 1.15625 6.34375z" fill-rule="nonzero"></path><path fill="#000000" fill-opacity="0.0" d="m492.71652 172.47244l217.6063 0l0 40.755905l-217.6063 0z" fill-rule="nonzero"></path><path fill="#000000" d="m513.5603 190.79369l0 3.3125q0 0.484375 -0.28125 0.703125q-0.265625 0.203125 -0.84375 0.203125l-5.1094055 0q-0.515625 0 -0.734375 -0.203125q-0.234375 -0.21875 -0.234375 -0.703125l0 -3.3125l7.2031555 0zm0 -3.609375l0 2.390625l-7.2031555 0l0 -2.3125q0 -0.359375 -0.234375 -0.5625q-0.1875 -0.171875 -0.46875 -0.171875q-0.28125 0 -0.46875 0.1875q-0.203125 0.21875 -0.203125 0.5625l0 7.03125q0 0.890625 0.5625 1.390625q0.53125 0.484375 1.453125 0.484375l5.8281555 0q0.890625 0 1.453125 -0.484375q0.609375 -0.515625 0.609375 -1.40625l0 -7.109375q0 -0.328125 -0.203125 -0.484375q-0.1875 -0.171875 -0.46875 -0.171875q-0.28125 0 -0.46875 0.171875q-0.1875 0.15625 -0.1875 0.484375zm7.703125 8.890625l0 -9.3125q0 -0.328125 -0.234375 -0.515625q-0.1875 -0.15625 -0.46875 -0.15625q-0.296875 0 -0.484375 0.1875q-0.21875 0.1875 -0.21875 0.515625l0 4.078125l-4.0 0q-0.328125 0 -0.5 0.15625q-0.15625 0.1875 -0.15625 0.421875q0.015625 0.234375 0.203125 0.421875q0.21875 0.1875 0.5625 0.1875l3.890625 0l0 4.015625q0 0.328125 0.21875 0.53125q0.1875 0.1875 0.484375 0.1875q0.28125 0 0.46875 -0.1875q0.234375 -0.203125 0.234375 -0.53125zm-1.40625 2.53125l0 1.453125l-12.1406555 0l0 -1.453125q0 -0.328125 -0.234375 -0.515625q-0.1875 -0.171875 -0.46875 -0.171875q-0.28125 0 -0.46875 0.171875q-0.203125 0.1875 -0.203125 0.515625l0 4.828125q0 0.75 0.4375 1.21875q0.46875 0.5 1.296875 0.5l11.3125305 0q0.875 0 1.390625 -0.5q0.484375 -0.453125 0.484375 -1.171875l0 -4.875q0 -0.328125 -0.234375 -0.515625q-0.1875 -0.171875 -0.46875 -0.171875q-0.296875 0 -0.484375 0.171875q-0.21875 0.1875 -0.21875 0.515625zm0 2.640625l0 1.921875q0 0.421875 -0.1875 0.59375q-0.1875 0.1875 -0.671875 0.1875l-10.3906555 0q-0.484375 0 -0.703125 -0.21875q-0.1875 -0.1875 -0.1875 -0.578125l0 -1.90625l12.1406555 0zm18.828125 -14.59375l-7.4375 0q-1.046875 0 -1.6875 0.609375q-0.578125 0.578125 -0.578125 1.515625l0 5.0625q0 1.125 0.703125 1.734375q0.671875 0.59375 1.890625 0.59375q2.984375 0 5.1875 -0.28125q2.734375 -0.359375 4.78125 -1.125q0.296875 -0.140625 0.421875 -0.40625q0.09375 -0.234375 0 -0.484375q-0.125 -0.234375 -0.359375 -0.328125q-0.25 -0.125 -0.5625 0.015625q-1.9375 0.796875 -4.359375 1.15625q-2.109375 0.296875 -5.03125 0.296875q-0.65625 0 -0.96875 -0.296875q-0.328125 -0.328125 -0.328125 -1.015625l0 -4.609375q0 -0.703125 0.234375 -0.96875q0.265625 -0.28125 0.96875 -0.28125l7.09375 0q0.6875 0 0.703125 -0.609375q0 -0.578125 -0.671875 -0.578125zm5.90625 5.109375l0 -5.0625q0 -0.609375 -0.703125 -0.609375q-0.6875 0 -0.6875 0.625l0 10.78125q0 0.328125 0.21875 0.546875q0.1875 0.15625 0.46875 0.15625q0.28125 0 0.46875 -0.15625q0.234375 -0.1875 0.234375 -0.515625l0 -4.578125l2.59375 0q0.265625 0 0.421875 -0.1875q0.140625 -0.1875 0.140625 -0.421875q-0.015625 -0.234375 -0.1875 -0.421875q-0.15625 -0.15625 -0.46875 -0.15625l-2.5 0zm-7.21875 6.84375q-3.78125 0 -5.796875 1.046875q-1.828125 0.96875 -1.828125 2.5625q0 1.546875 1.828125 2.484375q2.015625 1.0625 5.796875 1.0625q3.75 0 5.765625 -1.0625q1.828125 -0.9375 1.828125 -2.484375q0 -1.59375 -1.828125 -2.5625q-2.015625 -1.046875 -5.765625 -1.046875zm0 1.21875q3.09375 0 4.703125 0.65625q1.5 0.625 1.5 1.734375q0 1.046875 -1.5 1.65625q-1.609375 0.6875 -4.703125 0.6875q-3.125 0 -4.765625 -0.6875q-1.46875 -0.609375 -1.46875 -1.65625q0 -1.109375 1.46875 -1.734375q1.625 -0.65625 4.765625 -0.65625z" fill-rule="nonzero"></path><path fill="#000000" d="m558.8884 209.34056l-2.671875 0q-2.078125 -2.375 -3.234375 -5.1875q-1.140625 -2.8125 -1.140625 -6.34375q0 -3.53125 1.140625 -6.34375q1.15625 -2.8125 3.234375 -5.1875l2.671875 0l0 0.109375q-0.9375 0.859375 -1.8125 1.984375q-0.859375 1.109375 -1.59375 2.609375q-0.703125 1.4375 -1.140625 3.171875q-0.4375 1.734375 -0.4375 3.65625q0 2.0 0.421875 3.671875q0.4375 1.65625 1.15625 3.15625q0.703125 1.453125 1.609375 2.609375q0.90625 1.171875 1.796875 1.984375l0 0.109375z" fill-rule="nonzero"></path><path fill="#000000" d="m570.02124 186.55931q-3.0 0 -4.671875 1.046875q-1.46875 0.9375 -1.46875 2.375q0 1.40625 1.46875 2.34375q1.671875 1.046875 4.671875 1.046875q2.96875 0 4.640625 -1.046875q1.5 -0.9375 1.5 -2.34375q0 -1.4375 -1.5 -2.375q-1.671875 -1.046875 -4.640625 -1.046875zm0 1.1875q2.359375 0 3.625 0.6875q1.125 0.609375 1.125 1.546875q0 0.90625 -1.125 1.515625q-1.265625 0.6875 -3.625 0.6875q-2.390625 0 -3.65625 -0.6875q-1.109375 -0.609375 -1.109375 -1.515625q0 -0.9375 1.109375 -1.546875q1.265625 -0.6875 3.65625 -0.6875zm-0.796875 8.34375l0 1.03125q0 0.640625 -0.140625 1.15625q-0.140625 0.515625 -0.359375 0.890625q-0.390625 0.515625 0.078125 0.859375q0.46875 0.375 0.890625 -0.09375q0.390625 -0.484375 0.65625 -1.28125q0.28125 -0.828125 0.28125 -1.6875l0 -0.9375l5.765625 -0.171875q0.28125 -0.015625 0.46875 -0.234375q0.140625 -0.15625 0.140625 -0.390625q-0.03125 -0.265625 -0.21875 -0.40625q-0.203125 -0.15625 -0.53125 -0.109375q-2.1875 0.109375 -6.125 0.203125q-3.671875 0.09375 -6.90625 0.09375q-0.609375 0 -0.640625 0.5625q-0.015625 0.59375 0.5625 0.59375l6.078125 -0.078125zm10.9375 3.921875l0 -13.296875q0 -0.296875 -0.234375 -0.46875q-0.1875 -0.15625 -0.46875 -0.15625q-0.296875 0 -0.484375 0.15625q-0.21875 0.1875 -0.21875 0.5l0 10.28125l-4.640625 0q-0.328125 0 -0.515625 0.171875q-0.15625 0.15625 -0.140625 0.421875q0 0.234375 0.21875 0.390625q0.203125 0.1875 0.578125 0.1875l4.5 0l0 1.8125q0 0.328125 0.21875 0.53125q0.1875 0.171875 0.484375 0.171875q0.28125 0 0.46875 -0.171875q0.234375 -0.203125 0.234375 -0.53125zm-13.6875 0.09375q0 -0.328125 -0.234375 -0.515625q-0.1875 -0.1875 -0.46875 -0.1875q-0.296875 0 -0.484375 0.1875q-0.21875 0.1875 -0.21875 0.515625l0 2.953125q0 0.90625 0.640625 1.5q0.625 0.59375 1.59375 0.59375l13.03125 0q0.609375 0 0.609375 -0.609375q0 -0.59375 -0.609375 -0.59375l-12.703125 0q-0.6875 0 -0.921875 -0.21875q-0.234375 -0.234375 -0.234375 -0.859375l0 -2.765625zm24.453125 -6.609375l13.265625 0q0.609375 0 0.609375 -0.609375q-0.03125 -0.59375 -0.640625 -0.59375l-13.03125 0q-0.5625 0 -0.796875 -0.234375q-0.234375 -0.203125 -0.234375 -0.703125l0 -0.84375l13.78125 0q0.65625 0 0.65625 -0.609375q0 -0.578125 -0.671875 -0.578125l-13.765625 0l0 -0.96875q0 -0.390625 0.28125 -0.609375q0.28125 -0.1875 0.796875 -0.1875l13.015625 0q0.28125 0 0.46875 -0.1875q0.140625 -0.1875 0.140625 -0.421875q0 -0.234375 -0.1875 -0.421875q-0.1875 -0.15625 -0.5 -0.15625l-13.1875 0q-0.984375 0 -1.625 0.53125q-0.609375 0.5625 -0.609375 1.4375l0 3.140625q0 0.859375 0.59375 1.421875q0.609375 0.59375 1.640625 0.59375zm6.328125 0.234375q0 -0.546875 -0.6875 -0.546875q-0.671875 -0.015625 -0.671875 0.46875l0 2.609375l-8.375 0q-0.671875 0 -0.703125 0.578125q-0.046875 0.59375 0.59375 0.59375l18.34375 0q0.3125 0 0.5 -0.1875q0.15625 -0.171875 0.15625 -0.40625q0 -0.25 -0.1875 -0.421875q-0.1875 -0.15625 -0.515625 -0.15625l-8.453125 0l0 -2.53125zm-0.640625 5.15625q-4.171875 0 -6.28125 0.984375q-1.890625 0.890625 -1.890625 2.453125q0 1.546875 1.890625 2.453125q2.109375 0.984375 6.28125 0.984375q4.15625 0 6.265625 -0.984375q1.921875 -0.90625 1.921875 -2.453125q0 -1.59375 -1.921875 -2.453125q-2.09375 -0.984375 -6.265625 -0.984375zm0 1.171875q3.546875 0 5.25 0.609375q1.578125 0.5625 1.578125 1.65625q0 1.0625 -1.578125 1.59375q-1.703125 0.640625 -5.25 0.640625q-3.5625 0 -5.265625 -0.640625q-1.546875 -0.53125 -1.546875 -1.59375q0 -1.09375 1.546875 -1.65625q1.703125 -0.609375 5.265625 -0.609375zm30.515625 -8.859375l0 3.328125q0 0.609375 -0.25 0.84375q-0.265625 0.203125 -0.875 0.203125l-10.78125 0q-0.625 0 -0.890625 -0.234375q-0.234375 -0.234375 -0.234375 -0.796875l0 -3.34375l13.03125 0zm0 -4.109375l0 2.890625l-13.03125 0l0 -2.890625q0 -0.34375 -0.234375 -0.53125q-0.1875 -0.171875 -0.46875 -0.171875q-0.296875 0 -0.484375 0.171875q-0.21875 0.203125 -0.21875 0.5625l0 7.703125q0 0.921875 0.609375 1.4375q0.59375 0.484375 1.546875 0.484375l11.421875 0q1.078125 0 1.65625 -0.515625q0.609375 -0.515625 0.609375 -1.5l0 -7.6875q0 -0.328125 -0.234375 -0.515625q-0.1875 -0.15625 -0.46875 -0.15625q-0.296875 0 -0.484375 0.1875q-0.21875 0.1875 -0.21875 0.53125zm-7.1875 10.953125l0 4.84375l-8.421875 0q-0.328125 0 -0.515625 0.171875q-0.15625 0.1875 -0.1875 0.421875q-0.015625 0.234375 0.125 0.421875q0.140625 0.1875 0.390625 0.1875l18.40625 0q0.296875 0 0.484375 -0.1875q0.1875 -0.1875 0.1875 -0.421875q0 -0.234375 -0.1875 -0.421875q-0.1875 -0.171875 -0.515625 -0.171875l-8.40625 0l0 -4.75q0 -0.328125 -0.234375 -0.515625q-0.1875 -0.1875 -0.453125 -0.1875q-0.28125 -0.03125 -0.46875 0.140625q-0.203125 0.15625 -0.203125 0.46875zm27.234375 -11.234375l-10.640625 0q-0.65625 0 -0.65625 0.59375q-0.03125 0.609375 0.625 0.609375l4.640625 0l0 1.265625q0 2.734375 -1.703125 4.921875q-1.40625 1.796875 -3.796875 3.046875q-0.3125 0.15625 -0.375 0.421875q-0.078125 0.234375 0.0625 0.46875q0.140625 0.234375 0.375 0.296875q0.28125 0.09375 0.5625 -0.046875q2.0 -1.0 3.515625 -2.6875q1.53125 -1.640625 2.046875 -3.375q0.421875 1.5625 1.984375 3.203125q1.5 1.578125 3.453125 2.625q0.328125 0.1875 0.65625 0.09375q0.25 -0.0625 0.421875 -0.328125q0.140625 -0.234375 0.0625 -0.515625q-0.0625 -0.28125 -0.375 -0.4375q-2.40625 -1.296875 -3.75 -2.90625q-1.75 -2.109375 -1.75 -4.828125l0 -1.21875l4.640625 0q0.578125 0 0.578125 -0.609375q0 -0.59375 -0.578125 -0.59375zm4.984375 12.84375l0 -12.9375q0 -0.296875 -0.234375 -0.46875q-0.1875 -0.15625 -0.46875 -0.15625q-0.296875 0 -0.484375 0.15625q-0.21875 0.1875 -0.21875 0.5l0 4.984375l-4.0 0q-0.328125 0 -0.5 0.171875q-0.15625 0.15625 -0.15625 0.421875q0.015625 0.234375 0.203125 0.390625q0.21875 0.1875 0.5625 0.1875l3.890625 0l0 6.75q0 0.359375 0.21875 0.5625q0.1875 0.1875 0.484375 0.1875q0.28125 0 0.46875 -0.1875q0.234375 -0.203125 0.234375 -0.5625zm-13.65625 0.28125q0 -0.375 -0.234375 -0.578125q-0.1875 -0.1875 -0.46875 -0.1875q-0.3125 0 -0.5 0.1875q-0.203125 0.203125 -0.203125 0.578125l0 3.125q0 1.03125 0.65625 1.578125q0.609375 0.515625 1.65625 0.515625l12.875 0q0.578125 0 0.578125 -0.609375q0 -0.59375 -0.578125 -0.59375l-12.640625 0q-0.671875 0 -0.90625 -0.21875q-0.234375 -0.234375 -0.234375 -0.859375l0 -2.9375z" fill-rule="nonzero"></path><path fill="#000000" d="m665.39624 197.80931q0 3.53125 -1.15625 6.34375q-1.140625 2.8125 -3.21875 5.1875l-2.6875 0l0 -0.109375q0.90625 -0.8125 1.8125 -1.984375q0.90625 -1.15625 1.609375 -2.609375q0.71875 -1.5 1.140625 -3.15625q0.4375 -1.671875 0.4375 -3.671875q0 -1.921875 -0.4375 -3.65625q-0.4375 -1.734375 -1.140625 -3.171875q-0.75 -1.5 -1.609375 -2.609375q-0.859375 -1.125 -1.8125 -1.984375l0 -0.109375l2.6875 0q2.078125 2.375 3.21875 5.1875q1.15625 2.8125 1.15625 6.34375z" fill-rule="nonzero"></path><path fill="#000000" fill-opacity="0.0" d="m831.20734 639.91864l93.88977 0l0 43.811035l-93.88977 0z" fill-rule="nonzero"></path><path fill="#000000" d="m847.9886 654.5836q0 2.109375 -1.171875 4.359375q-1.375 2.625 -4.03125 4.734375q-0.328125 0.234375 -0.34375 0.515625q-0.046875 0.265625 0.140625 0.453125q0.15625 0.1875 0.421875 0.1875q0.296875 0.015625 0.578125 -0.171875q1.59375 -1.21875 2.796875 -2.671875q1.0 -1.234375 1.75 -2.671875q1.484375 0.890625 2.71875 2.015625q1.40625 1.21875 2.75 2.90625q0.203125 0.28125 0.53125 0.3125q0.28125 0.015625 0.5 -0.171875q0.234375 -0.1875 0.234375 -0.46875q0.015625 -0.296875 -0.21875 -0.5625q-1.46875 -1.703125 -2.828125 -2.859375q-1.359375 -1.171875 -3.1875 -2.265625q0.34375 -0.890625 0.5625 -1.859375q0.234375 -0.953125 0.234375 -1.6875q0 -0.375 -0.234375 -0.578125q-0.21875 -0.1875 -0.5 -0.1875q-0.28125 -0.03125 -0.484375 0.15625q-0.21875 0.1875 -0.21875 0.515625zm11.765625 8.9375l0 -9.359375q0 -0.296875 -0.234375 -0.46875q-0.1875 -0.15625 -0.46875 -0.15625q-0.296875 0 -0.484375 0.15625q-0.21875 0.1875 -0.21875 0.5l0 4.046875l-5.96875 0q-0.359375 0 -0.546875 0.171875q-0.15625 0.1875 -0.15625 0.421875q0 0.234375 0.1875 0.421875q0.203125 0.1875 0.5625 0.1875l5.921875 0l0 4.078125q0 0.328125 0.21875 0.53125q0.1875 0.1875 0.484375 0.1875q0.28125 0 0.46875 -0.1875q0.234375 -0.203125 0.234375 -0.53125zm-2.25 3.0625l-12.84375 0q-0.65625 0 -0.625 0.609375q0 0.609375 0.625 0.609375l12.734375 0q0.515625 0 0.75 0.21875q0.203125 0.1875 0.203125 0.625l0 3.8125q0 0.328125 0.21875 0.53125q0.1875 0.171875 0.484375 0.171875q0.28125 0 0.46875 -0.171875q0.234375 -0.203125 0.234375 -0.53125l0 -3.859375q0 -0.9375 -0.578125 -1.46875q-0.59375 -0.546875 -1.671875 -0.546875zm25.21875 -10.640625l0 2.625q0 0.40625 -0.1875 0.5625q-0.1875 0.171875 -0.671875 0.171875l-11.25 0q-0.515625 0 -0.703125 -0.1875q-0.21875 -0.21875 -0.21875 -0.6875l0 -2.390625q0 -0.46875 0.171875 -0.65625q0.203125 -0.203125 0.671875 -0.203125l11.28125 0q0.4375 0 0.671875 0.15625q0.234375 0.1875 0.234375 0.609375zm-12.421875 4.578125l11.71875 0q1.015625 0 1.546875 -0.421875q0.5625 -0.453125 0.5625 -1.3125l0 -3.125q0 -0.796875 -0.609375 -1.234375q-0.578125 -0.453125 -1.640625 -0.453125l-11.4375 0q-1.0 0 -1.59375 0.515625q-0.5625 0.515625 -0.5625 1.390625l0 2.921875q0 0.84375 0.46875 1.265625q0.5 0.453125 1.546875 0.453125zm15.078125 2.59375l-18.265625 0q-0.671875 0 -0.703125 0.59375q-0.046875 0.609375 0.59375 0.609375l8.53125 0l0 3.8125q0 0.328125 0.203125 0.515625q0.1875 0.171875 0.46875 0.171875q0.265625 0 0.453125 -0.1875q0.234375 -0.21875 0.234375 -0.5625l0 -3.75l8.53125 0q0.578125 0 0.578125 -0.609375q-0.015625 -0.59375 -0.625 -0.59375zm-15.6875 4.78125q0 -0.421875 -0.234375 -0.65625q-0.1875 -0.203125 -0.46875 -0.203125q-0.296875 0 -0.484375 0.203125q-0.21875 0.234375 -0.21875 0.65625l0 2.625q0 0.921875 0.546875 1.484375q0.53125 0.59375 1.46875 0.59375l13.484375 0q0.609375 0 0.609375 -0.609375q0 -0.59375 -0.609375 -0.59375l-12.96875 0q-0.65625 0 -0.890625 -0.21875q-0.234375 -0.234375 -0.234375 -0.859375l0 -2.421875z" fill-rule="nonzero"></path><path fill="#000000" fill-opacity="0.0" d="m442.66403 297.36615l109.41733 0l0 43.811005l-109.41733 0z" fill-rule="nonzero"></path><path fill="#000000" d="m454.92966 312.35925l0 12.984375q0 1.265625 0.609375 1.953125q0.65625 0.765625 2.015625 0.765625q2.171875 0 5.015625 -0.421875q3.109375 -0.4375 4.703125 -1.078125q0.328125 -0.15625 0.453125 -0.4375q0.09375 -0.234375 -0.03125 -0.46875q-0.09375 -0.265625 -0.34375 -0.359375q-0.28125 -0.09375 -0.609375 0.078125q-1.40625 0.609375 -4.296875 1.046875q-2.6875 0.453125 -4.6875 0.453125q-0.75 0 -1.09375 -0.359375q-0.359375 -0.34375 -0.359375 -1.0l0 -13.171875q0 -0.359375 -0.234375 -0.546875q-0.1875 -0.15625 -0.46875 -0.15625q-0.28125 0 -0.46875 0.15625q-0.203125 0.21875 -0.203125 0.5625zm15.609375 7.859375l0 -8.578125q0 -0.3125 -0.234375 -0.5q-0.1875 -0.140625 -0.46875 -0.140625q-0.28125 0 -0.46875 0.140625q-0.21875 0.1875 -0.21875 0.5l0 18.28125q0 0.3125 0.21875 0.5q0.1875 0.1875 0.46875 0.1875q0.28125 0 0.46875 -0.1875q0.234375 -0.1875 0.234375 -0.5l0 -8.5625l2.59375 0q0.5625 0 0.5625 -0.578125q0 -0.5625 -0.5625 -0.5625l-2.59375 0zm16.921875 -8.796875l-6.140625 0q-0.65625 0 -0.65625 0.59375q0 0.609375 0.65625 0.609375l6.1875 0q0.625 0 0.609375 -0.609375q0 -0.59375 -0.65625 -0.59375zm2.484375 2.9375l-11.15625 0q-0.65625 0 -0.65625 0.578125q0 0.59375 0.65625 0.59375l11.203125 0q0.296875 0 0.484375 -0.1875q0.171875 -0.171875 0.171875 -0.40625q0 -0.25 -0.1875 -0.421875q-0.1875 -0.15625 -0.515625 -0.15625zm-5.484375 2.546875q-2.65625 0 -4.15625 0.984375q-1.375 0.9375 -1.375 2.34375q0 1.359375 1.375 2.25q1.5 1.015625 4.15625 1.015625q2.578125 0 4.09375 -1.015625q1.390625 -0.890625 1.390625 -2.25q0 -1.40625 -1.390625 -2.34375q-1.515625 -0.984375 -4.09375 -0.984375zm0 1.203125q1.96875 0 3.0625 0.609375q1.03125 0.5625 1.03125 1.515625q0 0.890625 -1.03125 1.453125q-1.09375 0.609375 -3.0625 0.609375q-2.0 0 -3.125 -0.609375q-1.03125 -0.5625 -1.03125 -1.453125q0 -0.9375 1.03125 -1.515625q1.125 -0.609375 3.125 -0.609375zm10.078125 -0.046875l0 -6.453125q0 -0.625 -0.703125 -0.625q-0.6875 0 -0.6875 0.625l0 12.984375q0 0.328125 0.21875 0.515625q0.1875 0.1875 0.46875 0.1875q0.28125 0 0.46875 -0.1875q0.234375 -0.1875 0.234375 -0.515625l0 -5.34375l2.546875 0q0.609375 0 0.609375 -0.609375q0 -0.578125 -0.609375 -0.578125l-2.546875 0zm-13.078125 7.078125q0 -0.328125 -0.234375 -0.515625q-0.1875 -0.1875 -0.46875 -0.1875q-0.28125 0 -0.46875 0.1875q-0.21875 0.1875 -0.21875 0.515625l0 2.8125q0 0.90625 0.5625 1.5q0.5625 0.59375 1.53125 0.59375l12.796875 0q0.609375 0 0.609375 -0.609375q0 -0.59375 -0.609375 -0.59375l-12.375 0q-0.65625 0 -0.890625 -0.21875q-0.234375 -0.234375 -0.234375 -0.859375l0 -2.625zm32.765656 -13.4375l-10.6406555 0q-0.65625 0 -0.65625 0.59375q-0.03125 0.609375 0.625 0.609375l4.640625 0l0 1.265625q0 2.734375 -1.703125 4.921875q-1.40625 1.796875 -3.796875 3.046875q-0.3125 0.15625 -0.375 0.421875q-0.078125 0.234375 0.0625 0.46875q0.140625 0.234375 0.375 0.296875q0.28125 0.09375 0.5625 -0.046875q2.0 -1.0 3.515625 -2.6875q1.53125 -1.640625 2.046875 -3.375q0.421875 1.5625 1.984375 3.203125q1.5000305 1.578125 3.4531555 2.625q0.328125 0.1875 0.65625 0.09375q0.25 -0.0625 0.421875 -0.328125q0.140625 -0.234375 0.0625 -0.515625q-0.0625 -0.28125 -0.375 -0.4375q-2.40625 -1.296875 -3.7500305 -2.90625q-1.75 -2.109375 -1.75 -4.828125l0 -1.21875l4.6406555 0q0.578125 0 0.578125 -0.609375q0 -0.59375 -0.578125 -0.59375zm4.984375 12.84375l0 -12.9375q0 -0.296875 -0.234375 -0.46875q-0.1875 -0.15625 -0.46875 -0.15625q-0.296875 0 -0.484375 0.15625q-0.21875 0.1875 -0.21875 0.5l0 4.984375l-4.0 0q-0.328125 0 -0.5 0.171875q-0.15625 0.15625 -0.15625 0.421875q0.015625 0.234375 0.203125 0.390625q0.21875 0.1875 0.5625 0.1875l3.890625 0l0 6.75q0 0.359375 0.21875 0.5625q0.1875 0.1875 0.484375 0.1875q0.28125 0 0.46875 -0.1875q0.234375 -0.203125 0.234375 -0.5625zm-13.6562805 0.28125q0 -0.375 -0.234375 -0.578125q-0.1875 -0.1875 -0.46875 -0.1875q-0.3125 0 -0.5 0.1875q-0.203125 0.203125 -0.203125 0.578125l0 3.125q0 1.03125 0.65625 1.578125q0.609375 0.515625 1.65625 0.515625l12.8750305 0q0.578125 0 0.578125 -0.609375q0 -0.59375 -0.578125 -0.59375l-12.6406555 0q-0.671875 0 -0.90625 -0.21875q-0.234375 -0.234375 -0.234375 -0.859375l0 -2.9375z" fill-rule="nonzero"></path><path fill="#000000" fill-opacity="0.0" d="m631.2677 297.36484l93.88977 0l0 43.811005l-93.88977 0z" fill-rule="nonzero"></path><path fill="#000000" d="m652.2677 311.31107q-4.046875 0 -6.203125 1.265625q-1.96875 1.125 -1.96875 3.015625q0 1.875 1.96875 3.03125q2.171875 1.28125 6.203125 1.28125q4.015625 0 6.1875 -1.28125q2.0 -1.15625 2.0 -3.03125q0 -1.890625 -2.0 -3.015625q-2.15625 -1.265625 -6.1875 -1.265625zm0 1.1875q3.359375 0 5.15625 0.890625q1.671875 0.828125 1.671875 2.203125q0 1.359375 -1.671875 2.1875q-1.78125 0.90625 -5.15625 0.90625q-3.390625 0 -5.171875 -0.90625q-1.640625 -0.828125 -1.640625 -2.1875q0 -1.375 1.640625 -2.203125q1.796875 -0.890625 5.171875 -0.890625zm9.171875 10.125l-18.265625 0q-0.671875 0 -0.703125 0.59375q-0.046875 0.609375 0.59375 0.609375l4.40625 0l0 1.828125q0 1.03125 -0.375 1.9375q-0.359375 0.84375 -1.03125 1.53125q-0.234375 0.203125 -0.1875 0.515625q0.015625 0.265625 0.25 0.46875q0.21875 0.1875 0.5 0.21875q0.28125 0.015625 0.515625 -0.1875q0.765625 -0.8125 1.234375 -1.984375q0.5 -1.21875 0.5 -2.484375l0 -1.84375l7.46875 0l0 6.078125q0 0.328125 0.21875 0.53125q0.1875 0.171875 0.46875 0.171875q0.28125 0 0.46875 -0.1875q0.234375 -0.21875 0.234375 -0.546875l0 -6.046875l3.75 0q0.578125 0 0.578125 -0.609375q-0.015625 -0.59375 -0.625 -0.59375zm14.828125 -11.40625q-4.09375 0 -6.234375 1.03125q-1.9375 0.9375 -1.9375 2.546875q0 1.59375 1.9375 2.53125q2.109375 1.03125 6.234375 1.03125q4.109375 0 6.234375 -1.03125q1.953125 -0.9375 1.953125 -2.53125q0 -1.609375 -1.953125 -2.546875q-2.15625 -1.03125 -6.234375 -1.03125zm0 1.21875q3.46875 0 5.203125 0.625q1.625 0.609375 1.625 1.734375q0 1.109375 -1.625 1.71875q-1.734375 0.65625 -5.203125 0.65625q-3.484375 0 -5.21875 -0.65625q-1.59375 -0.609375 -1.59375 -1.71875q0 -1.125 1.59375 -1.734375q1.734375 -0.625 5.21875 -0.625zm9.171875 8.125l-18.265625 0q-0.671875 0 -0.703125 0.59375q-0.046875 0.609375 0.59375 0.609375l8.53125 0l0 3.8125q0 0.328125 0.203125 0.515625q0.1875 0.171875 0.46875 0.171875q0.265625 0 0.453125 -0.1875q0.234375 -0.21875 0.234375 -0.5625l0 -3.75l8.53125 0q0.578125 0 0.578125 -0.609375q-0.015625 -0.59375 -0.625 -0.59375zm-15.6875 4.78125q0 -0.421875 -0.234375 -0.65625q-0.1875 -0.203125 -0.46875 -0.203125q-0.296875 0 -0.484375 0.203125q-0.21875 0.234375 -0.21875 0.65625l0 2.625q0 0.921875 0.546875 1.484375q0.53125 0.59375 1.46875 0.59375l13.484375 0q0.609375 0 0.609375 -0.609375q0 -0.59375 -0.609375 -0.59375l-12.96875 0q-0.65625 0 -0.890625 -0.21875q-0.234375 -0.234375 -0.234375 -0.859375l0 -2.421875zm31.484375 -13.796875l-7.4375 0q-1.046875 0 -1.6875 0.609375q-0.578125 0.578125 -0.578125 1.515625l0 5.0625q0 1.125 0.703125 1.734375q0.671875 0.59375 1.890625 0.59375q2.984375 0 5.1875 -0.28125q2.734375 -0.359375 4.78125 -1.125q0.296875 -0.140625 0.421875 -0.40625q0.09375 -0.234375 0 -0.484375q-0.125 -0.234375 -0.359375 -0.328125q-0.25 -0.125 -0.5625 0.015625q-1.9375 0.796875 -4.359375 1.15625q-2.109375 0.296875 -5.03125 0.296875q-0.65625 0 -0.96875 -0.296875q-0.328125 -0.328125 -0.328125 -1.015625l0 -4.609375q0 -0.703125 0.234375 -0.96875q0.265625 -0.28125 0.96875 -0.28125l7.09375 0q0.6875 0 0.703125 -0.609375q0 -0.578125 -0.671875 -0.578125zm5.90625 5.109375l0 -5.0625q0 -0.609375 -0.703125 -0.609375q-0.6875 0 -0.6875 0.625l0 10.78125q0 0.328125 0.21875 0.546875q0.1875 0.15625 0.46875 0.15625q0.28125 0 0.46875 -0.15625q0.234375 -0.1875 0.234375 -0.515625l0 -4.578125l2.59375 0q0.265625 0 0.421875 -0.1875q0.140625 -0.1875 0.140625 -0.421875q-0.015625 -0.234375 -0.1875 -0.421875q-0.15625 -0.15625 -0.46875 -0.15625l-2.5 0zm-7.21875 6.84375q-3.78125 0 -5.796875 1.046875q-1.828125 0.96875 -1.828125 2.5625q0 1.546875 1.828125 2.484375q2.015625 1.0625 5.796875 1.0625q3.75 0 5.765625 -1.0625q1.828125 -0.9375 1.828125 -2.484375q0 -1.59375 -1.828125 -2.5625q-2.015625 -1.046875 -5.765625 -1.046875zm0 1.21875q3.09375 0 4.703125 0.65625q1.5 0.625 1.5 1.734375q0 1.046875 -1.5 1.65625q-1.609375 0.6875 -4.703125 0.6875q-3.125 0 -4.765625 -0.6875q-1.46875 -0.609375 -1.46875 -1.65625q0 -1.109375 1.46875 -1.734375q1.625 -0.65625 4.765625 -0.65625z" fill-rule="nonzero"></path><path fill="#000000" fill-opacity="0.0" d="m710.30707 304.70078l109.41736 0l0 43.811035l-109.41736 0z" fill-rule="nonzero"></path><path fill="#000000" d="m731.5258 318.70953l-6.0 0q-0.6875 0 -0.6875 0.609375q0 0.609375 0.6875 0.609375l6.09375 0q0.5625 0 0.53125 -0.609375q-0.015625 -0.609375 -0.625 -0.609375zm2.34375 2.765625l-10.640625 0q-0.65625 0 -0.65625 0.609375q-0.03125 0.609375 0.625 0.609375l4.640625 0l0 0.515625q0 1.953125 -1.359375 3.328125q-1.40625 1.4375 -3.953125 2.015625q-0.328125 0.078125 -0.421875 0.3125q-0.09375 0.234375 0 0.484375q0.09375 0.265625 0.328125 0.40625q0.234375 0.15625 0.53125 0.09375q2.390625 -0.6875 3.875 -1.859375q1.1875 -0.953125 1.6875 -2.15625q0.46875 1.125 1.796875 2.09375q1.5 1.078125 3.703125 1.640625q0.359375 0.0625 0.640625 -0.09375q0.25 -0.140625 0.328125 -0.421875q0.09375 -0.265625 -0.046875 -0.515625q-0.140625 -0.265625 -0.46875 -0.328125q-2.5625 -0.515625 -3.921875 -1.8125q-1.328125 -1.28125 -1.328125 -3.203125l0 -0.5l4.640625 0q0.578125 0 0.578125 -0.609375q0 -0.609375 -0.578125 -0.609375zm4.984375 8.28125l0 -10.8125q0 -0.296875 -0.234375 -0.46875q-0.1875 -0.15625 -0.46875 -0.15625q-0.296875 0 -0.484375 0.15625q-0.21875 0.1875 -0.21875 0.5l0 5.8125l-3.765625 0q-0.328125 0 -0.5 0.15625q-0.15625 0.1875 -0.140625 0.421875q0 0.234375 0.21875 0.421875q0.203125 0.1875 0.578125 0.1875l3.609375 0l0 3.78125q0 0.328125 0.21875 0.515625q0.1875 0.1875 0.484375 0.1875q0.28125 0 0.46875 -0.1875q0.234375 -0.1875 0.234375 -0.515625zm-7.546875 1.078125q-3.84375 0 -5.875 1.046875q-1.828125 0.9375 -1.828125 2.5625q0 1.546875 1.828125 2.484375q2.03125 1.0625 5.875 1.0625q3.84375 0 5.859375 -1.0625q1.859375 -0.9375 1.859375 -2.484375q0 -1.625 -1.859375 -2.5625q-2.015625 -1.046875 -5.859375 -1.046875zm0 1.21875q3.1875 0 4.828125 0.65625q1.53125 0.625 1.53125 1.734375q0 1.046875 -1.53125 1.65625q-1.640625 0.6875 -4.828125 0.6875q-3.203125 0 -4.84375 -0.6875q-1.5 -0.609375 -1.5 -1.65625q0 -1.109375 1.5 -1.734375q1.640625 -0.65625 4.84375 -0.65625zm31.5 -13.359375l-15.046875 0q-0.65625 0 -0.625 0.578125q0 0.609375 0.625 0.609375l15.125 0q0.28125 0 0.46875 -0.1875q0.140625 -0.1875 0.140625 -0.421875q0 -0.234375 -0.1875 -0.421875q-0.1875 -0.15625 -0.5 -0.15625zm0.078125 5.578125l-2.890625 0l0.734375 -3.28125q0.0625 -0.3125 -0.125 -0.515625q-0.15625 -0.1875 -0.46875 -0.21875q-0.28125 -0.015625 -0.515625 0.125q-0.25 0.140625 -0.28125 0.46875l-0.71875 3.421875l-6.609375 0l-0.734375 -3.5q-0.046875 -0.328125 -0.28125 -0.484375q-0.234375 -0.140625 -0.515625 -0.125q-0.28125 0.03125 -0.4375 0.21875q-0.1875 0.203125 -0.125 0.53125l0.703125 3.359375l-2.875 0q-0.609375 0 -0.609375 0.578125q-0.03125 0.609375 0.53125 0.609375l15.328125 0q0.546875 0 0.5 -0.609375q-0.03125 -0.578125 -0.609375 -0.578125zm1.59375 3.15625l-18.265625 0q-0.703125 0 -0.703125 0.5625q0 0.59375 0.6875 0.59375l8.4375 0l0 1.9375q0 0.328125 0.203125 0.546875q0.1875 0.15625 0.46875 0.15625q0.265625 0 0.453125 -0.1875q0.234375 -0.203125 0.234375 -0.5625l0 -1.890625l8.53125 0q0.578125 0 0.578125 -0.59375q-0.015625 -0.5625 -0.625 -0.5625zm-9.171875 3.6875q-4.171875 0 -6.28125 0.984375q-1.890625 0.890625 -1.890625 2.453125q0 1.546875 1.890625 2.453125q2.109375 0.984375 6.28125 0.984375q4.15625 0 6.265625 -0.984375q1.921875 -0.90625 1.921875 -2.453125q0 -1.59375 -1.921875 -2.453125q-2.09375 -0.984375 -6.265625 -0.984375zm0 1.171875q3.546875 0 5.25 0.609375q1.578125 0.5625 1.578125 1.65625q0 1.0625 -1.578125 1.59375q-1.703125 0.640625 -5.25 0.640625q-3.5625 0 -5.265625 -0.640625q-1.546875 -0.53125 -1.546875 -1.59375q0 -1.09375 1.546875 -1.65625q1.703125 -0.609375 5.265625 -0.609375zm29.65625 -13.5l-12.890625 0q-0.703125 0 -0.734375 0.578125q0 0.609375 0.703125 0.609375l12.65625 0q0.609375 0 0.875 0.1875q0.25 0.1875 0.25 0.6875l0 1.234375q0 0.375 -0.28125 0.546875q-0.25 0.1875 -0.765625 0.1875l-11.203125 0q-1.078125 0 -1.640625 0.515625q-0.546875 0.515625 -0.546875 1.359375l0 1.5q0 0.84375 0.609375 1.375q0.609375 0.546875 1.59375 0.546875l13.296875 0q0.328125 0 0.53125 -0.21875q0.171875 -0.15625 0.171875 -0.390625q0 -0.265625 -0.1875 -0.421875q-0.21875 -0.1875 -0.546875 -0.1875l-12.984375 0q-0.53125 0 -0.796875 -0.21875q-0.28125 -0.234375 -0.28125 -0.71875l0 -1.03125q0 -0.46875 0.21875 -0.703125q0.25 -0.21875 0.796875 -0.21875l11.25 0q1.078125 0 1.609375 -0.46875q0.5625 -0.46875 0.5625 -1.453125l0 -1.453125q0 -0.796875 -0.578125 -1.3125q-0.640625 -0.53125 -1.6875 -0.53125zm3.515625 11.953125l-18.28125 0q-0.6875 0 -0.65625 0.578125q0 0.59375 0.609375 0.59375l8.5 0l0 5.296875q0 0.359375 0.1875 0.5625q0.1875 0.1875 0.453125 0.1875q0.25 0 0.4375 -0.1875q0.21875 -0.203125 0.21875 -0.5625l0 -5.296875l8.578125 0q0.578125 0 0.578125 -0.59375q-0.015625 -0.578125 -0.625 -0.578125z" fill-rule="nonzero"></path><path fill="#000000" fill-opacity="0.0" d="m836.3097 351.8609l70.01575 0l0 43.811005l-70.01575 0z" fill-rule="nonzero"></path><path fill="#000000" d="m864.90344 366.05713l-15.109375 0q-0.65625 0 -0.65625 0.59375q-0.03125 0.609375 0.625 0.609375l6.875 0q-0.140625 1.59375 -2.375 2.828125q-2.171875 1.21875 -5.21875 1.53125q-0.40625 0.015625 -0.59375 0.234375q-0.15625 0.203125 -0.09375 0.46875q0.046875 0.28125 0.265625 0.4375q0.25 0.1875 0.625 0.140625q2.90625 -0.328125 5.1875 -1.453125q2.171875 -1.078125 2.875 -2.40625q0.734375 1.328125 2.90625 2.40625q2.296875 1.125 5.234375 1.453125q0.328125 0.046875 0.5625 -0.140625q0.203125 -0.15625 0.25 -0.4375q0.046875 -0.265625 -0.09375 -0.46875q-0.15625 -0.21875 -0.484375 -0.234375q-3.1875 -0.328125 -5.375 -1.546875q-2.203125 -1.21875 -2.3125 -2.8125l6.90625 0q0.59375 0 0.59375 -0.609375q0 -0.59375 -0.59375 -0.59375zm1.5 9.375l-8.4375 0l0 -2.578125q0 -0.609375 -0.671875 -0.578125q-0.6875 0 -0.6875 0.625l0 2.53125l-8.390625 0q-0.328125 0 -0.515625 0.171875q-0.15625 0.1875 -0.1875 0.421875q-0.015625 0.234375 0.125 0.421875q0.140625 0.1875 0.390625 0.1875l18.40625 0q0.296875 0 0.484375 -0.1875q0.1875 -0.1875 0.1875 -0.421875q0 -0.234375 -0.1875 -0.421875q-0.1875 -0.171875 -0.515625 -0.171875zm-9.09375 2.84375q-4.171875 0 -6.28125 0.984375q-1.890625 0.890625 -1.890625 2.453125q0 1.546875 1.890625 2.453125q2.109375 0.984375 6.28125 0.984375q4.15625 0 6.265625 -0.984375q1.921875 -0.90625 1.921875 -2.453125q0 -1.59375 -1.921875 -2.453125q-2.09375 -0.984375 -6.265625 -0.984375zm0 1.171875q3.546875 0 5.25 0.609375q1.578125 0.5625 1.578125 1.65625q0 1.0625 -1.578125 1.59375q-1.703125 0.640625 -5.25 0.640625q-3.5625 0 -5.265625 -0.640625q-1.546875 -0.53125 -1.546875 -1.59375q0 -1.09375 1.546875 -1.65625q1.703125 -0.609375 5.265625 -0.609375zm22.671875 -13.40625l-7.171875 0q-0.65625 0 -0.640625 0.578125q0 0.609375 0.65625 0.609375l7.015625 0q0.484375 0 0.765625 0.234375q0.3125 0.234375 0.3125 0.734375l0 1.03125q0 2.640625 -2.1875 4.125q-2.15625 1.421875 -6.234375 1.59375q-0.34375 0 -0.5625 0.203125q-0.15625 0.171875 -0.15625 0.421875q0 0.234375 0.203125 0.40625q0.21875 0.15625 0.5625 0.15625q4.625 -0.203125 7.171875 -2.0625q2.53125 -1.828125 2.53125 -4.828125l0 -1.234375q0 -0.890625 -0.65625 -1.4375q-0.625 -0.53125 -1.609375 -0.53125zm8.203125 5.109375l0 -5.046875q0 -0.625 -0.703125 -0.625q-0.6875 0 -0.6875 0.625l0 9.40625q0 0.328125 0.21875 0.515625q0.1875 0.1875 0.46875 0.1875q0.28125 0 0.46875 -0.1875q0.234375 -0.1875 0.234375 -0.515625l0 -3.171875l2.546875 0q0.609375 0 0.609375 -0.609375q0 -0.578125 -0.609375 -0.578125l-2.546875 0zm-2.328125 7.0l-12.09375 0q-0.65625 0 -0.625 0.609375q0 0.609375 0.625 0.609375l12.09375 0q0.5 0 0.734375 0.21875q0.203125 0.1875 0.203125 0.625l0 4.1875q0 0.328125 0.21875 0.53125q0.1875 0.171875 0.46875 0.171875q0.28125 0 0.46875 -0.171875q0.234375 -0.203125 0.234375 -0.53125l0 -4.1875q0 -0.984375 -0.59375 -1.515625q-0.609375 -0.546875 -1.734375 -0.546875z" fill-rule="nonzero"></path></g></svg>

