<?xml version="1.0" standalone="yes"?>

<svg version="1.1" viewBox="0.0 0.0 960.0 720.0" fill="none" stroke="none" stroke-linecap="square" stroke-miterlimit="10" xmlns="http://www.w3.org/2000/svg" xmlns:xlink="http://www.w3.org/1999/xlink"><clipPath id="p.0"><path d="m0 0l960.0 0l0 720.0l-960.0 0l0 -720.0z" clip-rule="nonzero"></path></clipPath><g clip-path="url(#p.0)"><path fill="#000000" fill-opacity="0.0" d="m0 0l960.0 0l0 720.0l-960.0 0z" fill-rule="nonzero"></path><path fill="#ffffff" d="m35.017487 118.75488l66.29922 5.259842l-3.7165375 47.055115l-66.29921 -5.259842z" fill-rule="nonzero"></path><path stroke="#434343" stroke-width="4.0" stroke-linejoin="round" stroke-linecap="butt" d="m35.017487 118.75488l66.29922 5.259842l-3.7165375 47.055115l-66.29921 -5.259842z" fill-rule="nonzero"></path><path fill="#ffffff" d="m152.87729 19.327955l50.14174 9.700787l-7.968506 41.259842l-50.14174 -9.700783z" fill-rule="nonzero"></path><path stroke="#434343" stroke-width="4.0" stroke-linejoin="round" stroke-linecap="butt" d="m152.87729 19.327955l50.14174 9.700787l-7.968506 41.259842l-50.14174 -9.700783z" fill-rule="nonzero"></path><path fill="#ffffff" d="m130.5145 136.64575l41.228348 3.2440948l-2.4881897 31.181107l-41.228348 -3.2440948z" fill-rule="nonzero"></path><path stroke="#434343" stroke-width="4.0" stroke-linejoin="round" stroke-linecap="butt" d="m130.5145 136.64575l41.228348 3.2440948l-2.4881897 31.181107l-41.228348 -3.2440948z" fill-rule="nonzero"></path><path fill="#ffffff" d="m371.41995 277.23096l16.188965 0l0 20.094513l-16.188965 0z" fill-rule="nonzero"></path><path stroke="#666666" stroke-width="4.0" stroke-linejoin="round" stroke-linecap="butt" d="m371.41995 277.23096l16.188965 0l0 20.094513l-16.188965 0z" fill-rule="nonzero"></path><path fill="#ffffff" d="m442.66397 257.80585l57.88974 -9.669296l7.559082 45.417313l-57.88977 9.669312z" fill-rule="nonzero"></path><path stroke="#434343" stroke-width="4.0" stroke-linejoin="round" stroke-linecap="butt" d="m442.66397 257.80585l57.88974 -9.669296l7.559082 45.417313l-57.88977 9.669312z" fill-rule="nonzero"></path><path fill="#ffffff" d="m519.71313 228.02179l109.4173 -0.12597656l0 54.897644l-109.4173 0.12597656z" fill-rule="nonzero"></path><path stroke="#434343" stroke-width="4.0" stroke-linejoin="round" stroke-linecap="butt" d="m519.71313 228.02179l109.4173 -0.12597656l0 54.897644l-109.4173 0.12597656z" fill-rule="nonzero"></path><path fill="#ffffff" d="m645.96173 253.7743l67.590515 5.32283l-3.086609 38.48819l-67.590515 -5.3228455z" fill-rule="nonzero"></path><path stroke="#434343" stroke-width="4.0" stroke-linejoin="round" stroke-linecap="butt" d="m645.96173 253.7743l67.590515 5.32283l-3.086609 38.48819l-67.590515 -5.3228455z" fill-rule="nonzero"></path><path fill="#ffffff" d="m727.2939 274.49442l35.748047 -0.03149414l0 31.275574l-35.748047 0.03149414z" fill-rule="nonzero"></path><path stroke="#434343" stroke-width="4.0" stroke-linejoin="round" stroke-linecap="butt" d="m727.2939 274.49442l35.748047 -0.03149414l0 31.275574l-35.748047 0.03149414z" fill-rule="nonzero"></path><path fill="#ffffff" d="m853.88446 326.6738l23.370056 -0.03149414l0 22.425201l-23.370056 0.03149414z" fill-rule="nonzero"></path><path stroke="#434343" stroke-width="4.0" stroke-linejoin="round" stroke-linecap="butt" d="m853.88446 326.6738l23.370056 -0.03149414l0 22.425201l-23.370056 0.03149414z" fill-rule="nonzero"></path><path fill="#ffffff" d="m689.55475 399.36636l89.57483 -0.12597656l0 40.629913l-89.57483 0.12597656z" fill-rule="nonzero"></path><path stroke="#434343" stroke-width="4.0" stroke-linejoin="round" stroke-linecap="butt" d="m689.55475 399.36636l89.57483 -0.12597656l0 40.629913l-89.57483 0.12597656z" fill-rule="nonzero"></path><path fill="#ffffff" d="m616.84247 400.1625l63.968445 -0.06298828l0 40.81891l-63.968445 0.06298828z" fill-rule="nonzero"></path><path stroke="#434343" stroke-width="4.0" stroke-linejoin="round" stroke-linecap="butt" d="m616.84247 400.1625l63.968445 -0.06298828l0 40.81891l-63.968445 0.06298828z" fill-rule="nonzero"></path><path fill="#ffffff" d="m664.063 536.4147l42.236206 -0.03149414l0 24.409424l-42.236206 0.03149414z" fill-rule="nonzero"></path><path stroke="#434343" stroke-width="4.0" stroke-linejoin="round" stroke-linecap="butt" d="m664.063 536.4147l42.236206 -0.03149414l0 24.409424l-42.236206 0.03149414z" fill-rule="nonzero"></path><path fill="#ffffff" d="m727.29395 535.0083l38.614136 -0.03149414l0 24.409485l-38.614136 0.03149414z" fill-rule="nonzero"></path><path stroke="#434343" stroke-width="4.0" stroke-linejoin="round" stroke-linecap="butt" d="m727.29395 535.0083l38.614136 -0.03149414l0 24.409485l-38.614136 0.03149414z" fill-rule="nonzero"></path><path fill="#fff2cc" d="m346.9547 46.445133l0 0c-1.2981873 3.8755493 50.67462 24.779041 116.0845 46.68926c65.40988 21.910217 119.48746 36.530205 120.785675 32.654655l0 0c1.2981567 -3.8755493 55.375732 10.744431 120.785645 32.654648c65.40985 21.910217 117.38269 42.81372 116.08447 46.68927l-18.804565 56.138428c1.2981567 -3.8755493 -50.67462 -24.779037 -116.08453 -46.689255c-65.40985 -21.910217 -119.48743 -36.530197 -120.785645 -32.654648c-1.2981567 3.8755493 -55.375732 -10.744431 -120.785614 -32.654648c-65.40991 -21.910225 -117.38269 -42.81372 -116.0845 -46.68927z" fill-rule="nonzero"></path><path fill="#fff2cc" d="m447.4908 357.6328l0 0c0 1.1090698 37.780823 2.0081177 84.38583 2.0081177c46.60498 3.0517578E-5 84.3858 -0.89904785 84.3858 -2.0081177l0 0c0 -1.1090698 37.780823 -2.0081482 84.385864 -2.0081482c46.60498 0 84.3858 0.89907837 84.3858 2.0081482l0 16.065094c0 -1.1090698 -37.780823 -2.0081482 -84.3858 -2.0081482c-46.60504 0 -84.385864 0.89907837 -84.385864 2.0081482c0 1.1090393 -37.780823 2.0081177 -84.3858 2.0081177c-46.60501 0 -84.38583 -0.89907837 -84.38583 -2.0081177z" fill-rule="nonzero"></path><path fill="#fff2cc" d="m442.66403 479.39944l0 0c0 0.4182129 37.780823 0.75723267 84.38583 0.75723267c46.60498 0 84.3858 -0.33901978 84.3858 -0.75723267l0 0c0 -0.41818237 37.780823 -0.75720215 84.385864 -0.75720215c46.60498 0 84.3858 0.33901978 84.3858 0.75720215l0 6.0577393c0 -0.41818237 -37.780823 -0.75720215 -84.3858 -0.75720215c-46.60504 0 -84.385864 0.33901978 -84.385864 0.75720215c0 0.4182129 -37.780823 0.75723267 -84.3858 0.75723267c-46.60501 -3.0517578E-5 -84.38583 -0.33901978 -84.38583 -0.75723267z" fill-rule="nonzero"></path><path fill="#000000" fill-opacity="0.0" d="m807.4908 562.23096c0 32.275635 29.763794 48.41339 59.527588 64.55121c29.763794 16.137756 59.527588 32.275574 59.527588 64.55115" fill-rule="nonzero"></path><path stroke="#999999" stroke-width="12.0" stroke-linejoin="round" stroke-linecap="butt" d="m807.4908 562.23096c0 32.275635 29.763794 48.41339 59.527588 64.55121c29.763794 16.137756 59.527588 32.275574 59.527588 64.55115" fill-rule="nonzero"></path><path fill="#000000" fill-opacity="0.0" d="m140.55905 258.16797c78.16536 0 117.24805 38.370087 156.33072 76.74017c39.082672 38.370087 78.165344 76.74014 156.33069 76.74014" fill-rule="nonzero"></path><path stroke="#999999" stroke-width="8.0" stroke-linejoin="round" stroke-linecap="butt" d="m140.55905 258.16797c78.16536 0 117.24805 38.370087 156.33072 76.74017c39.082672 38.370087 78.165344 76.74014 156.33069 76.74014" fill-rule="nonzero"></path><path fill="#ffffff" d="m338.06824 290.11548l0 0c0 -3.974701 3.6240234 -7.1968384 8.094482 -7.1968384l0 0c4.470459 0 8.094513 3.2221375 8.094513 7.1968384l0 0c0 3.9747314 -3.624054 7.196869 -8.094513 7.196869l0 0c-4.470459 0 -8.094482 -3.2221375 -8.094482 -7.196869z" fill-rule="nonzero"></path><path stroke="#666666" stroke-width="4.0" stroke-linejoin="round" stroke-linecap="butt" d="m338.06824 290.11548l0 0c0 -3.974701 3.6240234 -7.1968384 8.094482 -7.1968384l0 0c4.470459 0 8.094513 3.2221375 8.094513 7.1968384l0 0c0 3.9747314 -3.624054 7.196869 -8.094513 7.196869l0 0c-4.470459 0 -8.094482 -3.2221375 -8.094482 -7.196869z" fill-rule="nonzero"></path></g></svg>

