<?xml version="1.0" encoding="UTF-8" standalone="no"?>
<!DOCTYPE svg PUBLIC "-//W3C//DTD SVG 1.1//EN"
"http://www.w3.org/Graphics/SVG/1.1/DTD/svg11.dtd">


<!-- Page 1 -->
<svg x="0" y="0" width="480" height="270" viewBox="0 0 1466 825" version="1.1" xmlns="http://www.w3.org/2000/svg" xmlns:xlink="http://www.w3.org/1999/xlink"
style="display: block;margin-left: auto;margin-right: auto;">
<defs>
<clipPath id="c0_1"><path d="M0,825L0,0L1466.7,0l0,825Z" /></clipPath>
<clipPath id="c1_1"><path d="M0,825L0,0L1466.7,0l0,825L0,825Z" /></clipPath>

<style type="text/css"><![CDATA[

.g3_1{
fill: none;
stroke: #BEBEBE;
stroke-width: 2;
stroke-linecap: butt;
stroke-linejoin: miter;
}
.g2_1{
fill: #BEBEBE;
}
.g1_1{
fill: none;
stroke: #7E7E7E;
stroke-width: 5;
stroke-linecap: butt;
stroke-linejoin: miter;
}


]]></style>

</defs>
<path d="M0,0
L0,825
L1466,825
L1466,0 Z "
fill="#FFFFFF" stroke="none" />
<path d="M49.1,168.2L148,178.6l-8,76.1L41.1,244.3Z" class="g1_1" />
<path d="M630.6,268.4l91.2,-4.7l4.3,82.6L634.9,351Z" class="g1_1" />
<g clip-path="url(#c0_1)">
<path d="M730.9,246l145,-24.5l16,94.9l-145,24.5Z" class="g1_1" />
</g>
<path d="M902.5,316.5l110,0l0,-92l-110,0l0,92Z" class="g1_1" />
<path d="M935.5,620.5l102,0l0,-71l-102,0l0,71Z" class="g1_1" />
<path d="M1073.5,598.5l175,0l0,-84l-175,0l0,84Z" class="g1_1" />
<path d="M1117.5,392.5l50,0l0,-65l-50,0l0,65Z" class="g1_1" />
<path d="M1355.5,527.5l69,0l0,-75l-69,0l0,75Z" class="g1_1" />
<g clip-path="url(#c0_1)">
<path d="M315.7,44.3l74.4,15.2l-13,63.5L302.7,107.8Z" class="g1_1" />
</g>
<path d="M1108.5,762.5l59,0l0,-49l-59,0l0,49Z" class="g1_1" />
<path d="M1231.5,762.5l59,0l0,-43l-59,0l0,43Z" class="g1_1" />
<path d="M453.5,340.5l26,0l0,-24l-26,0l0,24Z" class="g1_1" />
<path fill-rule="evenodd" d="M541.9,445.5c0,1,80.8,1.8,180.4,1.8c99.6,0,180.3,-0.8,180.3,-1.8c0,-1,80.8,-1.8,180.4,-1.8c99.6,0,180.3,0.8,180.3,1.8l0,14.3c0,-1,-80.7,-1.8,-180.3,-1.8c-99.6,0,-180.4,0.8,-180.4,1.8c0,1,-80.7,1.8,-180.3,1.8c-99.6,0,-180.4,-0.8,-180.4,-1.8Z" class="g2_1" />
<path d="M541.9,445.5c0,1,80.8,1.8,180.4,1.8c99.6,0,180.3,-0.8,180.3,-1.8c0,-1,80.8,-1.8,180.4,-1.8c99.6,0,180.3,0.8,180.3,1.8l0,14.3c0,-1,-80.7,-1.8,-180.3,-1.8c-99.6,0,-180.4,0.8,-180.4,1.8c0,1,-80.7,1.8,-180.3,1.8c-99.6,0,-180.4,-0.8,-180.4,-1.8Z" class="g3_1" />
<g clip-path="url(#c1_1)">
<path fill-rule="evenodd" d="M440.3,20.5C439.4,24.9,542.6,50.2,670.9,77c128.3,26.9,233,45.1,233.9,40.8c0.9,-4.4,105.6,13.8,233.9,40.7c128.2,26.9,231.5,52.1,230.6,56.5l-13.2,63c0.9,-4.3,-102.3,-29.6,-230.6,-56.5C997.2,194.7,892.5,176.4,891.6,180.8C890.7,185.1,786,166.9,657.7,140C529.4,113.2,426.2,87.9,427.1,83.6Z" class="g2_1" />
<path d="M440.3,20.5C439.4,24.9,542.6,50.2,670.9,77c128.3,26.9,233,45.1,233.9,40.8c0.9,-4.4,105.6,13.8,233.9,40.7c128.2,26.9,231.5,52.1,230.6,56.5l-13.2,63c0.9,-4.3,-102.3,-29.6,-230.6,-56.5C997.2,194.7,892.5,176.4,891.6,180.8C890.7,185.1,786,166.9,657.7,140C529.4,113.2,426.2,87.9,427.1,83.6Z" class="g3_1" />
</g>

</svg>
